<?xml version="1.0" standalone="no"?>
<svg xmlns="http://www.w3.org/2000/svg" viewBox="0 0 161.236 36" width="161.236" height="36"><g fill="#050303" color="#050303" transform="translate(133.236, 4.000000000000002) scale(0.2947369)"><g transform="translate(12.292, -0.776)"><svg width="95.0" height="95.0" x="-12.292" y="0.776" viewBox="-12.292 0.776 95 95"><g display="none"><path display="inline" d="M67.877,44.72c3.404-2.858,5.573-7.142,5.573-11.939c0-8.606-6.974-15.581-15.58-15.581   c-0.315,0-0.623,0.028-0.937,0.048C53.838,7.197,45.659,0,36.019,0C23.725,0,13.76,11.686,13.76,26.104   c0,0.038,0.004,0.077,0.004,0.114C6.017,27.119,0,33.696,0,41.685c0,6.488,3.965,12.044,9.604,14.39   c-0.958,2.021-1.509,4.271-1.509,6.656c0,8.605,6.976,15.58,15.581,15.58c1.926,0,3.761-0.365,5.464-1.004V100h12.949V77.182   c3.506-1.248,6.643-3.48,9.182-6.424c2.008,0.941,4.24,1.482,6.603,1.482c8.606,0,15.58-6.977,15.58-15.582   C73.452,51.863,71.283,47.579,67.877,44.72z"></path></g><g display="none"><g display="inline"><path d="M67.095,29.433h-5.768c-3.221,0-5.447-1.501-6.955-3.236c1.031-0.384,1.811-0.699,2.219-0.916    c7.393-3.773,14.793-8.089,14.793-18.7V0.578H50.482c0,0-0.367,2.746-0.588,3.771C43.845,7.356,37.289,4.094,31.195,3.79    C16.884,3.077,8.761,18.73,9.426,33.375c0.877,19.311,0.162,20.352,1.603,40.153c0.778,10.685,5.92,19.444,10.201,22.266    c4.281,2.821,7.163,4.189,11.849,3.413c-1.773-3.721-7.176-5.677-10.327-9.49c-5.846-7.07-4.941-10.685-5.511-23.22    c-0.598-13.155-1.063-14.187-0.28-24.191c0.144-1.827,0.623-3.76,1.539-4.609c2.689,2.608,7.755,4.855,17.709,4.855h1.81h3.957    h5.537c0,0-2.375-2.791-5.537-2.791c0,0-10.517-0.432-10.517-2.014c0.938-1.149,2.364-3.07,3.689-5.273    c3.617-1.12,7.369-2.3,10.726-3.388c3.018,1.804,7.785,3.139,15.453,3.139h1.813h3.955h5.537    C72.634,32.224,70.261,29.433,67.095,29.433z M60.767,4.183c2.227-0.095,4.504,0.45,5.537,1.815    c-1.461,3.346-1.129,9.552-5.537,9.611c-4.41-0.06-4.078-6.266-5.539-9.611C56.261,4.634,58.539,4.089,60.767,4.183z"></path><ellipse transform="matrix(-0.4188 -0.9081 0.9081 -0.4188 83.0382 67.7521)" cx="63.202" cy="7.302" rx="1.187" ry="1.582"></ellipse><ellipse transform="matrix(-0.9081 -0.4187 0.4187 -0.9081 108.2422 38.3549)" cx="58.33" cy="7.301" rx="1.583" ry="1.187"></ellipse></g></g><g display="none"><g display="inline"><path d="M37.744,0.001l-7.732,15.081c-0.878,1.639-2.449,1.487-4.023,0.572l-5.6-3.032l4.174,23.165    c0.877,4.232-1.938,4.232-3.328,2.403l-9.771-11.438l-1.587,5.809c-0.182,0.762-0.986,1.563-2.193,1.373l-12.357-2.717    l3.246,12.337c0.694,2.745,1.237,3.883-0.701,4.606l-4.404,2.164l21.27,18.063c0.842,0.684,1.268,1.912,0.968,3.024l-1.862,6.389    c7.324-0.884,13.89-1.674,21.214-2.555c0.65-0.009,1.729,0.569,1.725,1.354L35.81,100h3.561l-0.559-23.351    c-0.006-0.784,0.973-1.412,1.625-1.403c7.322,0.881,13.889,1.671,21.213,2.555l-1.861-6.389c-0.299-1.112,0.125-2.343,0.967-3.024    l21.271-18.063l-4.404-2.164c-1.938-0.724-1.396-1.861-0.701-4.606l3.246-12.337l-12.355,2.717    c-1.207,0.19-2.012-0.61-2.195-1.373l-1.586-5.809L54.259,38.19c-1.391,1.83-4.205,1.83-3.326-2.403l4.172-23.165l-5.6,3.032    c-1.572,0.916-3.145,1.067-4.021-0.572L37.744,0.001z"></path></g></g><g display="none"><g display="inline"><path d="M38.289,80.05c6.271,4.254,18.051,9.862,33.955,9.347c0,0-8.674-8.548-22.039-11.988    c21.477,0.136,37.617-12.017,37.617-12.017c-16.855-2.823-30.555,0.313-39.611,3.813c22.668-15.34,29.898-40.476,29.898-40.476    c-16.623,8.36-27.273,19.611-33.861,29.063c1.746-13.915,1.283-32.603-6.705-53.533c0,0-11.814,23.842-7.982,52.74    c-6.627-9.282-17.144-20.142-33.304-28.269c0,0,6.931,24.095,28.498,39.5c-8.987-3.061-21.662-5.396-36.932-2.839    c0,0,15.671,11.8,36.682,12.013C11.132,80.843,2.455,89.396,2.455,89.396c16.064,0.523,27.635-5.241,33.697-9.272    c0,0-1.232,11.031,2.361,18.1l1.674-0.313C40.187,97.91,36.718,87.63,38.289,80.05z"></path></g></g><g display="none"><g display="inline"><polygon points="73.453,87 58.273,58 67.179,58 48,29 56.906,29 36.359,0 15.178,29 24.085,29 4.905,58 13.813,58 -1.368,87     31.257,87 31.257,100 41.257,100 41.257,87   "></polygon></g></g><g display="none"><g display="inline"><path d="M39.723,27.226c4.104,0,7.445-3.376,7.445-7.538c0-4.151-3.342-7.53-7.445-7.53    c-4.119,0-7.447,3.379-7.447,7.53C32.275,23.85,35.603,27.226,39.723,27.226"></path><path d="M59.957,92.966L48.968,59.247V32.264c0-3.537-3.499-3.379-3.499-3.379H34.243h-2.959    c0,0-0.596-0.089-1.823,0.923l-8.267,4.878l-8.616-8.734c-1.407-1.683-3.892-1.933-5.568-0.511    c-1.688,1.422-1.777,4.001-0.371,5.708l11.001,11.133c0.741,0.795,1.777,1.34,2.947,1.34c0.854,0,1.642-0.272,2.306-0.729    l7.245-4.037v19.788L19.045,92.898c-0.809,2.979,0.944,6.038,3.904,6.845c2.947,0.797,5.985-0.979,6.771-3.955l9.685-29.568    l9.868,29.635c0.798,2.991,3.822,4.766,6.771,3.945C58.991,99.005,60.744,95.944,59.957,92.966"></path><path d="M4.682,34.947c0.383,0.386,1.013,0.397,1.405,0l0.135-0.114c0.371-0.397,0.394-1.034,0-1.422l-2.148-2.24    c-0.395-0.397-1.035-0.397-1.429-0.011l-0.113,0.125c-0.394,0.398-0.416,1.036-0.022,1.421L4.682,34.947z"></path><path d="M25.289,9.68L12.578,23.563l1.529,1.591l14.185-12.36l9.427-8.779c0.371-0.434,0.618-0.977,0.618-1.581    c0-1.329-1.058-2.422-2.352-2.435c-0.641-0.012-1.191,0.238-1.63,0.614L25.289,9.68z"></path></g></g><g display="none"><g display="inline"><path d="M41.404,12.147c3.361,0.278,6.279-2.222,6.557-5.579c0.256-3.356-2.244-6.272-5.605-6.551    c-3.334-0.255-6.275,2.245-6.529,5.603C35.546,8.954,38.046,11.894,41.404,12.147z"></path><path d="M36.242,14.648c1.203-0.833,2.662-1.389,4.283-1.25c2.082,0.162,3.801,1.458,4.844,3.033l6.135,12.177l8.379,5.765    c0.719,0.555,1.158,1.435,1.064,2.406c-0.115,1.506-1.436,2.64-2.939,2.5c-0.463-0.022-0.832-0.208-1.25-0.394l-9.145-6.296    c-0.277-0.231-0.508-0.509-0.693-0.811l-2.291-4.561l-2.762,12.13L52.66,52.104c0.256,0.394,0.418,0.856,0.51,1.319l2.916,15.394    c-0.021,0.349,0.023,0.558,0,0.834c-0.162,2.291-2.15,3.959-4.42,3.798c-1.875-0.162-3.266-1.552-3.705-3.266l-2.754-14.422    l-8.779-9.607l-2.037,9.353c-0.068,0.438-0.648,1.366-0.811,1.736l-8.426,14.189c-0.832,1.296-2.246,2.13-3.843,1.991    c-2.292-0.162-3.981-2.152-3.797-4.422c0.047-0.648,0.324-1.319,0.556-1.782l7.825-13.126l6.528-28.913l-4.262,3.451    l-2.269,10.301c-0.301,1.32-1.504,2.408-2.917,2.292c-1.528-0.116-2.64-1.436-2.523-2.963c0-0.116,0.023-0.231,0.046-0.37    l2.686-12.015c0.162-0.509,0.439-0.973,0.833-1.319L36.242,14.648z"></path><rect x="7.745" y="88.796" width="7.917" height="11.204"></rect><rect x="62.753" y="88.796" width="7.916" height="11.204"></rect><rect x="-9.108" y="78.842" width="9.653" height="5.347"></rect><rect x="65.23" y="78.842" width="9.652" height="5.347"></rect><rect x="77.916" y="78.842" width="9.652" height="5.347"></rect><rect x="52.845" y="78.842" width="9.652" height="5.347"></rect><rect x="40.455" y="78.842" width="9.658" height="5.347"></rect><rect x="28.07" y="78.842" width="9.631" height="5.347"></rect><rect x="15.685" y="78.842" width="9.63" height="5.347"></rect><rect x="3.3" y="78.842" width="9.63" height="5.347"></rect></g></g><g display="none"><g display="inline"><path d="M43.792,62.05c4.055-0.929,7.076-4.558,7.076-8.892c0-5.037-4.084-9.119-9.121-9.119c-5.039,0-9.123,4.082-9.123,9.119    c0,2.927,1.379,5.533,3.523,7.201l-46.721-10.326v24.629l51.166,0.035c2.299,0,4.316-1.199,5.467-3.004    c1.148,1.805,3.168,3.004,5.469,3.004c2.299,0,4.316-1.199,5.469-3.004c1.148,1.805,3.166,3.004,5.467,3.004    c2.299,0,4.318-1.199,5.469-3.004c1.148,1.805,3.166,3.004,5.467,3.004c2.299,0,4.318-1.199,5.467-3.004    c1.148,1.805,3.17,3.004,5.469,3.004c2.066,0,3.906-0.969,5.094-2.476L43.792,62.05z M36.976,53.158    c0-2.633,2.137-4.77,4.771-4.77s4.771,2.137,4.771,4.77c0,2.636-2.137,4.771-4.771,4.771S36.976,55.794,36.976,53.158z"></path><path d="M82.414,58.729l-30.621-6.66c0.039,0.359,0.059,0.721,0.059,1.09c0,0.896-0.117,1.761-0.332,2.584l30.121,6.552    L82.414,58.729"></path><path d="M-6.032,39.491l-0.776,3.565l38.596,8.396c0.211-1.244,0.652-2.41,1.275-3.457L-6.032,39.491"></path><path d="M23.074,30.345l10.533-5.964l-1.105-1.953l-12.722,7.205l-20.974-4.538c0.142,13.051,14.454,16.838,14.454,16.838    l20.979,4.47c1.85-2.056,4.529-3.346,7.51-3.346c4.496,0,8.307,2.936,9.617,6.995l26.449,5.634l6.596-12.068L23.074,30.345"></path></g></g><g display="none"><g display="inline"><path d="M33.029,46.129c1.855,0,3.367-1.522,3.367-3.369v-5.62c0-1.846-1.512-3.368-3.367-3.368H7.661    c-1.857,0-3.367,1.522-3.367,3.368v5.62c0,1.846,1.51,3.369,3.367,3.369H33.029z M66.509,46.103c1.869,0,3.367-1.521,3.367-3.366    V37.14c0-1.846-1.496-3.368-3.367-3.368H54.802c-1.857,0-3.367,1.522-3.367,3.368v5.596c0,1.845,1.51,3.366,3.367,3.366H66.509z     M22.975,72.839H3.802c-6.651,0-12.032-5.394-12.032-12.031l-0.024-21.019c0-9.024,7.31-16.333,16.321-16.333h55.507    c9.014,0,16.334,7.309,16.334,16.333l0.021,29.669h8.498c1.834,0,3.316,1.521,3.316,3.355H48.642    c-0.42-6.746-5.979-12.09-12.834-12.09C28.955,60.724,23.394,66.067,22.975,72.839"></path><path d="M35.81,77.669c2.229,0,4.027-1.786,4.027-4.016c0-2.23-1.799-4.027-4.027-4.027    c-2.217,0-4.016,1.798-4.016,4.027C31.794,75.882,33.593,77.669,35.81,77.669 M26.545,73.654c0-5.13,4.136-9.275,9.265-9.275    s9.262,4.146,9.262,9.275c0,5.116-4.133,9.272-9.262,9.272C30.679,82.927,26.545,78.771,26.545,73.654"></path></g></g><g display="none"><g display="inline"><path d="M11.611,84.421c9.106,0,16.495-7.389,16.495-16.506c0-9.096-7.388-16.483-16.495-16.483    c-9.083,0-16.472,7.39-16.472,16.483C-4.861,77.032,2.528,84.421,11.611,84.421z M-8.611,67.915    c0-11.172,9.072-20.211,20.222-20.211c11.184,0,20.245,9.039,20.245,20.211c0,11.184-9.061,20.232-20.245,20.232    C0.461,88.148-8.611,79.099-8.611,67.915z"></path><path d="M71.167,84.612c9.084,0,16.473-7.377,16.473-16.494c0-9.106-7.389-16.483-16.473-16.483    c-9.105,0-16.494,7.377-16.494,16.483C54.672,77.235,62.061,84.612,71.167,84.612z M50.922,68.116    c0-11.184,9.072-20.223,20.244-20.223c11.15,0,20.223,9.039,20.223,20.223c0,11.185-9.072,20.233-20.223,20.233    C59.995,88.351,50.922,79.301,50.922,68.116z"></path><path d="M50.979,18.757c4.199,0,7.611-3.391,7.611-7.59c0-4.2-3.412-7.613-7.611-7.613s-7.613,3.414-7.613,7.613    C43.366,15.366,46.78,18.757,50.979,18.757z"></path><path d="M51.292,37.217c-1.1,0.022-2.289-0.528-3.166-1.909l-4.939-7.725L32.991,37.677l9.455,4.975    c3.885,1.864,3.301,5.277,3.301,5.277v21.4c0,2.426-1.955,4.401-4.379,4.401c-2.426,0-4.379-1.977-4.379-4.401V52.196    L20.594,43.09c-1.954-1.089-3.279-3.179-3.279-5.558c0-1.64,0.606-3.145,1.639-4.267l16.08-16.113    c1.998-2.257,4.783-1.897,4.783-1.897c3.369,0,5.143,2.942,5.143,2.942l8.354,13.092l12.689-0.022c4.559,0,4.559,5.951,0,5.951    L51.292,37.217L51.292,37.217z"></path></g></g><g display="none"><g display="inline"><path d="M58.995,13.622c-3.914,0-6.928,3.128-6.928,6.927c0,3.912,3.014,7.04,6.928,7.04c3.797,0,6.926-3.128,6.926-7.04    C65.92,16.75,62.792,13.622,58.995,13.622z"></path><path d="M78.325,59.098c1.449-3.24,1.117-9.833-0.338-16.537c0.111,0.223,0.672,1.788,0.783,1.899    c2.348,1.899,5.025,1.005,6.256-2.347c-2.568-5.698-5.139-11.396-7.709-17.095c-2.123-0.335-4.135,0.335-6.258,2.011    c1.008,2.347,1.9,4.693,2.795,7.039l-3.688-4.469l-6.256-1.899l-4.021,1.341c-0.338,0.335-0.674,0.782-0.895,1.117    c-3.018,4.47-4.693,9.163-5.59,13.967c-4.021,2.57-7.822,4.916-11.729,7.487c-0.896,0.559-1.791,1.117-2.572,1.676l1.455,4.135    l1.117-0.336l0.893-0.336l12.402,21.9l-4.357,17.988l7.707,1.9l0.674-2.123l1.898-5.586l4.805,7.484l2.793-0.559l-6.256-12.066    l2.568-11.176l5.252-5.695l13.52,29.496l5.139-3.35L78.325,59.098z M58.995,66.693c-1.119,2.236-2.125,4.471-3.133,6.816    L45.696,55.744l11.957-4.582l1.342-2.123l1.898-3.017c1.453,2.904,3.018,5.698,4.467,8.491    C63.127,58.537,61.004,62.561,58.995,66.693z"></path><path d="M9.94,4.794c-4.021,0-7.373,3.352-7.373,7.374c0,4.135,3.352,7.374,7.373,7.374c4.024,0,7.375-3.239,7.375-7.374    C17.315,8.146,13.964,4.794,9.94,4.794z"></path><path d="M31.842,53.734c1.229-1.789,1.896-4.024,2.012-6.594c-0.336-3.017-1.453-6.369-2.459-9.498    c-1.006-2.011-0.113,0,0.668,0.224c3.354,1.117,5.254,0,6.26-2.57c-3.131-6.928-5.813-13.743-9.051-20.559    c-2.572,0.111-4.584,1.006-5.922,2.569l4.357,11.956c-2.572-5.921-5.924-10.056-11.509-9.946c-2.011,0-4.134,1.006-6.259,3.13    c-0.111,0.112-0.223,0.224-0.333,0.334c-1.79,5.14-3.576,10.392-5.364,15.532l-15.529,10.616l2.121,4.246l2.348-0.779    L6.926,75.857L3.125,95.635l6.815,1.787l1.453,0.336l2.348-9.723l5.363,8.604l4.022-0.334l-8.271-14.75l1.676-8.268l6.594-7.932    l15.756,32.959l2.793-2.346l2.459-2.123L31.842,53.734z M9.94,65.131l-2.009,4.246L-3.245,50.828L9.83,44.235    c0-0.112,0.111-0.223,0.111-0.223c0.782-1.229,1.564-2.347,2.235-3.464c2.458,3.017,4.134,6.145,5.028,9.162L9.94,65.131z"></path></g></g><g display="none"><g display="inline"><path d="M38.536,1.081c-27.57,0-50,22.43-50,50c0,27.568,22.43,50,50,50c27.57,0,50-22.432,50-50    C88.536,23.511,66.106,1.081,38.536,1.081z M42.567,92.817v-13.51h-8.063v13.512C14.593,90.91-1.293,75.024-3.201,55.113h13.512    v-8.064H-3.201c1.909-19.911,17.794-35.796,37.706-37.705v13.511h8.063V9.344c19.912,1.908,35.797,17.793,37.705,37.705h-13.51    v8.064h13.512C78.364,75.024,62.479,90.91,42.567,92.817z"></path></g></g><g display="none"><g display="inline"><path d="M33.221,0C17.739,0,5.187,12.552,5.187,28.034C5.187,43.516,33.221,100,33.221,100s28.034-56.482,28.034-71.966    S48.705,0,33.221,0z M33.221,40.477c-6.871,0-12.442-5.572-12.442-12.442c0-6.872,5.571-12.442,12.442-12.442    c6.872,0,12.442,5.57,12.442,12.442C45.664,34.905,40.093,40.477,33.221,40.477z"></path></g></g><g display="none"><g display="inline"><polygon points="-21.736,4.196 -5.868,20.593 0.225,15.063 -5.292,4.246   "></polygon><path d="M49.797,50.132c3,0.834,6.225-0.883,7.08-3.963c0.822-3.031-0.93-6.218-3.951-7.076l-2.354-0.662l-3.047,11.02    L49.797,50.132z"></path><path d="M47.952,37.729l-18.996-5.412c-1.248-0.329-2.502,0.429-2.846,1.692l-1.785,6.419c-0.352,1.262,0.328,2.556,1.609,2.935    l18.994,5.354L47.952,37.729z"></path><path d="M50.952,55.97c-1.449-1.394-3.25-2.5-5.35-3.084l-23.029-6.515l0,0L8.424,20.998c-0.745-1.311-1.944-2.354-3.496-2.783    c-3.103-0.882-6.327,0.961-7.174,4.098c-0.423,1.489-0.223,3.009,0.448,4.295l17.701,31.38c0,0,1.449,2.353,5.096,3.563    l32.178,9.119l14.922,15.315c0.496,0.524,1.145,0.93,1.92,1.155c2.248,0.63,4.6-0.729,5.256-2.976    c0.426-1.594-0.08-3.267-1.201-4.302L50.952,55.97z"></path><path d="M68.122,62.306l3.344,4.424l6.799-7.503l-5.74-3.233c0.541-4.066-1.953-8.005-5.951-9.146    c-4.4-1.235-8.973,1.343-10.197,5.791c-1.248,4.471,1.326,9.07,5.729,10.309C64.194,63.552,66.323,63.222,68.122,62.306z"></path></g></g><g display="none"><g display="inline"><g><path d="M33.98,55.402c-1.104,0-1.997-0.903-1.992-2.008c0,0,0.959-15.959,2.064-15.955c1.105,0.004,1.936,15.971,1.936,15.971     C35.985,54.182,35.535,55.402,33.98,55.402z"></path></g><path d="M40.456,30.102c1.613-1.62,2.612-3.853,2.612-6.314c0-4.938-4.018-8.955-8.955-8.955c-4.938,0-8.955,4.017-8.955,8.955    c0,2.461,0.999,4.694,2.612,6.314c-3.37,0.92-6.45,2.55-9.063,4.725l-1.92-1.987l1.438-1.39c0.794-0.768,0.815-2.034,0.048-2.828    c-0.767-0.794-2.033-0.815-2.828-0.048l-5.752,5.56c-0.794,0.768-0.876,2.098-0.048,2.828c1.006,0.886,2.439,0.423,2.828,0.048    l1.438-1.39l1.946,2.013c-3.649,4.228-5.864,9.728-5.864,15.738c0,13.3,10.821,24.121,24.121,24.121    c13.302,0,24.12-10.821,24.12-24.121C58.234,42.266,50.687,32.895,40.456,30.102z M27.158,23.789c0-3.835,3.12-6.955,6.955-6.955    s6.955,3.12,6.955,6.955c0,2.404-1.227,4.527-3.087,5.776c-0.615-0.1-1.238-0.172-1.868-0.225v-2.695h2c1.104,0,2-0.896,2-2    s-0.896-2-2-2h-8c-1.104,0-2,0.896-2,2s0.896,2,2,2h2v2.695c-0.63,0.052-1.253,0.125-1.868,0.225    C28.385,28.315,27.158,26.193,27.158,23.789z M34.113,73.493c-11.095,0-20.121-9.025-20.121-20.121    c0-11.095,9.026-20.122,20.121-20.122c11.096,0,20.121,9.026,20.121,20.122C54.234,64.468,45.208,73.493,34.113,73.493z"></path></g></g><g display="none"><g display="inline"><g><path d="M46.244,47.581l-5.994-1.76L25.125,63.48l6.594,1.059L46.244,47.581L46.244,47.581z M36.614,44.755l-5.998-1.754     L14.535,61.776l6.593,1.061L36.614,44.755L36.614,44.755z M55.859,50.42c-1.859-0.552-3.876-1.149-5.984-1.771L35.716,65.183     l6.594,1.061L55.859,50.42L55.859,50.42z M48.139,76.538c-1.063,0.057-1.976-0.806-2.049-1.932     c-0.049-0.935-0.102-1.968-0.122-2.256c-0.046-0.599-0.528-1.045-0.528-1.045l-1.776-1.818c-4.501-0.072-8.75-0.348-12.318-0.833     c-14.343-1.948-18.632-0.78-30.551-1.005l-0.195-0.003l-0.761,0.864c0,0-0.457,0.474-0.471,1.072     c-0.008,0.287-0.007,1.323-0.005,2.257c-0.023,1.13-0.889,2.04-1.953,2.04c-1.064,0-1.93-0.91-1.945-2.04     c0.001-0.934,0.003-1.97-0.004-2.257c-0.015-0.6-0.471-1.072-0.471-1.072l-1.352-1.532c-5.227-1.045-5.807-2.91-5.807-2.91     c-1.023-3.277-1.604-7.015-1.604-10.981c0-3.789,0.526-7.367,1.463-10.534c1.822,1.418,4.059,2.672,6.802,3.568     c4.096,1.337,10.339,2.165,11.566,0.249c0.214-0.335,0.746-1.448-0.181-1.563C0.575,44.349-7.888,43.272-7.049,34.62     c0.057-0.589-0.048-1.039-0.294-1.365c0.274-0.294,0.556-0.574,0.843-0.836c0,0,0.684-0.54,1.169-0.533     c0.692,0.009,1.6,0.091,1.686,1.387c0,0,0.09,7.046,11.648,7.227c3.614,0.057,5.856-0.792,7.442-1.934l-8.646-6.281     c-1.3-0.945-1.589-2.766-0.644-4.066l3.283-4.518c0.945-1.301,2.765-1.589,4.065-0.644l14.8,10.753     c0.098-0.003,0.194-0.004,0.294-0.004c2.962,0,5.435,1.273,6.017,2.968c2.593,0.021,4.798,1.017,5.668,2.413     c0.234-0.017,0.475-0.025,0.715-0.025c2.121,0,3.993,0.653,5.101,1.646c2.436,0.065,4.505,0.993,5.398,2.292l0.233,0.071     c0.285-0.025,0.58-0.039,0.877-0.039c2.272,0,4.258,0.75,5.321,1.864c0.132-0.005,0.265-0.008,0.399-0.008     c2.169,0,4.078,0.683,5.171,1.715c4.729,1.399,8.99,2.628,11.984,3.433C87.736,53.422,88.1,60.217,79.55,64.7     c-1.459,0.764-3.404,1.44-5.701,2.024l-1.123,1.844c0,0-0.368,0.545-0.278,1.139c0.044,0.283,0.223,1.305,0.39,2.223     c0.172,1.116-0.522,2.162-1.571,2.348c-1.048,0.187-2.06-0.562-2.271-1.669c-0.157-0.921-0.338-1.941-0.396-2.224     c-0.118-0.59-0.651-0.975-0.651-0.975l-1.564-1.25c-4.563,0.656-9.688,1.076-14.808,1.252l-1.298,1.641     c0,0-0.431,0.494-0.414,1.097c0.006,0.288,0.063,1.321,0.113,2.254C50.019,75.529,49.201,76.484,48.139,76.538L48.139,76.538z"></path></g></g></g><g display="none"><g display="inline"><path d="M30.549,41.405c0.99-0.266,1.575-1.278,1.309-2.263c-0.266-0.99-1.278-1.57-2.259-1.309    c-0.99,0.266-1.574,1.278-1.309,2.263C28.552,41.083,29.564,41.671,30.549,41.405z"></path><path d="M41.445,41.405c0.984,0.266,1.998-0.323,2.262-1.309c0.268-0.985-0.32-1.998-1.307-2.263    c-0.982-0.262-1.998,0.318-2.266,1.304C39.875,40.127,40.458,41.139,41.445,41.405z"></path><path d="M50.875,44.236c-0.721,0.725-0.721,1.889,0,2.612c0.725,0.725,1.893,0.725,2.615,0c0.717-0.724,0.717-1.888,0-2.612    C52.767,43.512,51.599,43.512,50.875,44.236z"></path><path d="M58.582,57.59c0.99-0.263,1.574-1.281,1.309-2.263c-0.264-0.985-1.273-1.572-2.26-1.31    c-0.99,0.267-1.57,1.277-1.313,2.267C56.587,57.273,57.599,57.85,58.582,57.59z"></path><path d="M58.585,65.865c-0.986-0.262-1.998,0.322-2.268,1.309c-0.26,0.987,0.32,1.998,1.311,2.264    c0.986,0.267,1.998-0.317,2.26-1.31C60.156,67.148,59.572,66.13,58.585,65.865z"></path><path d="M50.875,76.609c-0.721,0.718-0.721,1.891,0,2.61c0.725,0.724,1.893,0.724,2.615,0c0.717-0.721,0.717-1.894,0-2.61    C52.767,75.883,51.599,75.883,50.875,76.609z"></path><path d="M41.445,82.055c-0.986,0.26-1.57,1.273-1.311,2.258c0.268,0.992,1.273,1.57,2.266,1.311    c0.984-0.264,1.574-1.275,1.307-2.264C43.443,82.375,42.429,81.789,41.445,82.055z"></path><path d="M30.549,82.055c-0.985-0.267-1.997,0.319-2.259,1.305c-0.266,0.986,0.319,2,1.309,2.264    c0.981,0.261,1.994-0.325,2.259-1.311C32.124,83.329,31.539,82.314,30.549,82.055z"></path><path d="M18.507,76.609c-0.724,0.718-0.724,1.891,0,2.61c0.719,0.724,1.889,0.724,2.612,0c0.72-0.721,0.72-1.894,0-2.61    C20.396,75.883,19.226,75.883,18.507,76.609z"></path><path d="M13.413,65.869c-0.986,0.262-1.575,1.273-1.309,2.259c0.266,0.991,1.278,1.57,2.264,1.31    c0.986-0.266,1.57-1.275,1.309-2.264C15.41,66.188,14.399,65.604,13.413,65.869z"></path><path d="M13.413,57.59c0.986,0.26,1.997-0.316,2.264-1.306c0.261-0.988-0.323-2-1.309-2.267c-0.986-0.264-1.998,0.323-2.264,1.31    C11.838,56.309,12.427,57.328,13.413,57.59z"></path><path d="M39.531,58.197c-0.225-0.219-0.459-0.405-0.707-0.573l0.021-0.029L21.12,44.236c-0.724-0.724-1.893-0.724-2.612,0    c-0.724,0.725-0.724,1.889,0,2.612l13.358,17.726l0.026-0.024c0.17,0.251,0.358,0.486,0.576,0.706    c1.949,1.948,5.109,1.948,7.063,0C41.47,63.309,41.47,60.146,39.531,58.197z"></path><path d="M64.935,37.449l1.861-1.862l0.646,0.646c0.541,0.541,1.418,0.541,1.955,0l2.441-2.438c0.535-0.541,0.535-1.417,0-1.954    l-0.014-0.014l-5.813-5.813h-0.004c-0.537-0.541-1.414-0.541-1.955,0l-2.438,2.438c-0.541,0.541-0.541,1.414,0,1.954l0.633,0.632    l-1.854,1.854c-4.369-3.699-9.586-6.425-15.32-7.838c3.244-2.635,5.314-6.651,5.314-11.162c0-7.95-6.441-14.392-14.393-14.392    c-7.947,0-14.393,6.442-14.393,14.393c0,4.51,2.076,8.527,5.316,11.162c-5.73,1.413-10.947,4.139-15.317,7.838l-1.854-1.854    l0.628-0.632c0.537-0.541,0.537-1.413,0-1.954l-2.442-2.438c-0.537-0.541-1.409-0.541-1.95,0l0,0l-5.814,5.813L0.163,31.84    c-0.545,0.537-0.545,1.413,0,1.954l2.434,2.438c0.541,0.541,1.418,0.541,1.954,0l0.65-0.646l1.863,1.862    c-5.514,6.57-8.838,15.036-8.838,24.278c0,20.864,16.91,37.773,37.771,37.773c20.86,0,37.774-16.909,37.774-37.773    C73.771,52.484,70.453,44.018,64.935,37.449z M26.323,13.893c0-5.342,4.331-9.674,9.674-9.674c5.342,0,9.678,4.332,9.678,9.674    c0,4.188-2.666,7.75-6.381,9.099v-6.181h0.912c0.762,0,1.381-0.619,1.381-1.382v-3.45c0-0.764-0.619-1.382-1.381-1.382h-0.018    h-8.218h-0.004c-0.763,0-1.382,0.619-1.382,1.382v3.45c0,0.763,0.619,1.382,1.382,1.382h0.89v6.233    C29.058,21.739,26.323,18.137,26.323,13.893z M35.997,90.277c-15.719,0-28.459-12.743-28.459-28.465    c0-15.713,12.74-28.458,28.459-28.458c15.715,0,28.458,12.745,28.458,28.458C64.455,77.534,51.712,90.277,35.997,90.277z"></path></g></g><g display="none"><g display="inline"><path d="M58.661,25.812c0.066,0.263,0.462,0.263,1.349-0.212c1.492-0.766,2.787-1.994,4.067-3.039    c1.27-1.043,2.656-2.073,3.688-3.369c0.911-1.188,0.395-2.205-1.045-1.836c-1.876,0.477-3.949,2.881-5.271,4.162    C60.959,21.979,58.436,25.058,58.661,25.812z"></path><path d="M9.408,36.459c0-0.106-4.387-2.853-5.575-3.434c-1.507-0.754-5.219-3.568-6.804-1.929    c-1.031,1.083,0.462,1.994,1.348,2.734C-0.673,34.623,9.289,38.468,9.408,36.459z"></path><path d="M68.914,57.917c-0.039,0.08-0.054,0.17-0.066,0.252c-0.542,2.205,8.008,5.414,9.579,6.459    c2.021,1.32,5.721,1.203,4.398-2.152C81.689,59.634,69.574,56.938,68.914,57.917z"></path><path d="M53.785,69.214c0.371,2.562,1.798,5.27,3.423,7.516c1.995,2.724,6.646,7.188,5.614,11.019    c-1.004,3.713-4.82,1.348-6.301-0.633c-2.551-3.449-2.829-7.968-4.942-11.625c-1.017-1.771-2.417-3.066-4.28-3.927    c-3.699-1.666-7.677-2.733-9.882,1.588c-1.77,3.461-1.44,8.31-4.096,11.349c-1.281,1.453-4.082,2.352-5.152,0.156    c-1.413-2.865,1.189-7.238,0.503-10.386c-1.718-7.791-11.997,4.031-14.07,5.498c-5.827,4.082-3.224-3.463-2.114-6.367    c1.505-3.963,7.98-11.295,6.5-15.143c-0.674-1.729-4.188-1.229-5.55-1.123c-1.691,0.121-3.316,0.648-5.021,0.621    c-0.792,0-1.505,0.016-1.81-0.791c-0.344-0.887,0.595-1.812,0.12-2.67c-0.476-0.873-1.917-0.937-2.762-1.082    c-2.259-0.357-4.717-0.346-6.976,0c-1.836,0.275-3.738,1.203-5.627,1.043c-2.55-0.197-2.788-3.463-0.859-4.834    c1.137-0.82,3.185-1.006,4.532-0.833c6.5,1.294,19.145,3.607,23.068-3.437c2.788-4.979-1.467-4.069-4.016-5.615    c-2.273-1.387-2.921-2.603-0.385-2.88c2.339-0.263,5.337,0.713,7.742,0.806c1.823,0.066,2.788-1.532,3.409-3.025    c1.546-3.778,1.137-8.508-1.097-11.917c-1.756-2.682-4.385-4.769-5.296-7.993c-0.793-2.813,0.342-5.562,3.686-4.941    c6.448,1.176,4.743,9.525,5.998,14.083c2.259,8.257,9.419,0.846,13.924-4.36c1.031-1.188,2.775-2.959,4.439-3.197    c1.771-0.277,3.501,1.427,3.118,3.329c-0.463,2.22-3.687,3.224-4.559,5.22c-0.951,2.206,1.029,4.122,3.302,4.175    c2.473,0.065,4.679-1.705,7.097-2.008c4.703-0.582,2.602,5.707,4.002,8.56c2.272,4.599,7.241,0.397,10.214-1.083    c1.586-0.806,4.505-2.298,6.234-1.031c1.521,1.098,0.966,2.829-0.289,3.898c-2.075,1.784-5.206,1.4-7.757,1.758    c-3.698,0.501-8.06,1.862-9.751,5.548c-1.147,2.524-0.54,6.158,1.521,8.06c1.757,1.588,4.558,1.428,6.183,3.104    c3.171,3.248-2.352,5.049-4.756,5.814C57.061,62.701,53.019,63.979,53.785,69.214z"></path></g></g><g display="none"><g display="inline"><path d="M36.781-0.5C19.906-0.5,6.226,13.18,6.226,30.055c0,8.828,3.747,16.775,9.733,22.354l1.377,16.536l12.5,15.275V99.5h13.89    V84.223l12.5-15.277l1.377-16.536c5.986-5.579,9.734-13.526,9.734-22.354C67.337,13.18,53.658-0.5,36.781-0.5z M29.836,52.277    h-8.333V37h8.333V52.277z M47.892,53.949v6.662h-4.166v-6.663c-2.034-0.823-3.473-2.813-3.473-5.143    c0-2.331,1.438-4.318,3.473-5.143V37h4.166v6.662c2.035,0.825,3.473,2.813,3.473,5.144C51.365,51.137,49.927,53.125,47.892,53.949    z M38.171,30.055v-2.777h4.166l-5.556-9.723l-5.555,9.723h4.167v2.777H13.17c0-13.039,10.572-23.61,23.611-23.61    c13.041,0,23.609,10.571,23.609,23.61H38.171z"></path><rect x="24.628" y="38.389" width="2.083" height="12.5"></rect><rect x="35.393" y="10.611" width="2.778" height="4.167"></rect><rect x="26.017" y="13.628" transform="matrix(-0.4994 -0.8664 0.8664 -0.4994 29.1216 46.862)" width="4.167" height="2.777"></rect><rect x="19.66" y="19.986" transform="matrix(-0.866 -0.5001 0.5001 -0.866 29.8822 50.757)" width="4.165" height="2.778"></rect><rect x="44.07" y="12.932" transform="matrix(-0.8661 -0.4998 0.4998 -0.8661 77.3268 50.7449)" width="2.778" height="4.169"></rect><rect x="50.428" y="19.29" transform="matrix(-0.4998 -0.8661 0.8661 -0.4998 59.2055 76.936)" width="2.778" height="4.167"></rect></g></g><g display="none"><g display="inline"><path d="M44.683,22.206c0,1.317-1.066,2.385-2.385,2.385H30.372c-1.317,0-2.385-1.068-2.385-2.385v-5.301    c0-1.317,1.068-2.384,2.385-2.384h11.926c1.316,0,2.385,1.067,2.385,2.384V22.206z"></path><path d="M64.445,27.609c0-15.5-12.609-28.109-28.109-28.109c-15.501,0-28.11,12.609-28.11,28.109l10.975,32.954    c-1.68,2.908-2.646,6.279-2.646,9.881c0,8.304,5.12,15.408,12.373,18.342V99.5h14.817V88.783    c7.252-2.934,12.371-10.036,12.371-18.34c0-3.602-0.965-6.973-2.646-9.879L64.445,27.609z M47.779,50.029H36.336V37.685h11.443    V50.029L47.779,50.029z M36.336,27.609H18.042c0-10.087,8.207-18.294,18.294-18.294c10.085,0,18.292,8.207,18.292,18.294H36.336z"></path><rect x="41.149" y="38.986" width="1.815" height="9.741"></rect></g></g><g display="none"><g display="inline"><g><rect x="-5.774" y="-0.5" width="83.334" height="12.5"></rect><g><path d="M32.101,38.551h3.793h3.792c0.721,0.002,1.285-0.588,1.285-1.287v-2.19c0-0.701-0.598-1.276-1.285-1.287h-3.792h-3.793      c-0.688,0.011-1.283,0.586-1.283,1.287v2.19C30.819,37.962,31.382,38.553,32.101,38.551z"></path><path d="M49.177,48.982V43.97c-0.012-2.09-1.363-3.913-3.918-3.917h-9.366h-9.368c-2.552,0.004-3.903,1.827-3.917,3.917v5.012      c-0.005,2.428,1.757,3.905,3.917,3.917h9.368h9.366C47.423,52.889,49.185,51.41,49.177,48.982z"></path><path d="M26.087,64.18c-1.885-0.011-3.421,1.523-3.416,3.414c-0.005,1.897,1.531,3.432,3.416,3.446      c1.9-0.017,3.438-1.549,3.443-3.446C29.523,65.703,27.988,64.169,26.087,64.18z"></path><path d="M35.894,16.167c-23.013,0-41.667,18.655-41.667,41.666c0,23.012,18.655,41.667,41.667,41.667      c23.012,0,41.667-18.655,41.667-41.667C77.56,34.822,58.906,16.167,35.894,16.167z M38.777,27.051      c1.189-0.012,2.162,0.957,2.162,2.163c0,1.188-0.973,2.156-2.162,2.162c-1.201-0.005-2.169-0.974-2.162-2.162      C36.607,28.008,37.576,27.038,38.777,27.051z M33.01,27.051c1.203-0.013,2.172,0.957,2.163,2.163      c0.009,1.188-0.96,2.156-2.163,2.162c-1.188-0.005-2.159-0.974-2.161-2.162C30.851,28.008,31.822,27.038,33.01,27.051z       M51.181,88.617l-6.451-9.465h-8.836h-8.836l-6.423,9.465h-5.199l8.992-13.506c-2.998-0.498-5.99-3.631-5.984-7.454V39.74      c-0.006-3.938,3.312-7.555,7.83-7.55h9.651h9.617c4.492-0.005,7.811,3.613,7.803,7.55v27.917      c0.008,3.823-2.984,6.956-5.984,7.454l8.992,13.506H51.181z"></path><path d="M49.052,67.594c-0.01-1.891-1.543-3.425-3.447-3.414c-1.887-0.009-3.418,1.523-3.412,3.414      c-0.006,1.897,1.525,3.432,3.412,3.446C47.509,71.023,49.042,69.491,49.052,67.594z"></path></g></g></g></g><g display="none"><g display="inline"><path d="M38.705,38.865c-0.168,0.449-0.276,0.91-0.324,1.379c-0.053,0.518-0.038,1.039,0.058,1.555    c0.058,0.309,0.131,0.617,0.241,0.918c0.515,1.392,1.539,2.499,2.889,3.119c0.732,0.338,1.514,0.508,2.314,0.508    c0.996,0,1.949-0.279,2.781-0.764c0.449-0.262,0.863-0.584,1.227-0.964c0.324-0.339,0.605-0.725,0.84-1.145    c0.066-0.121,0.143-0.237,0.199-0.365c0,0,11.078-24.098,11.104-24.147c0.021-0.052,0.334-0.974,0.398-1.345    c0.436-2.428-0.781-4.941-3.127-6.021c-0.73-0.338-1.512-0.508-2.313-0.508c-1.688,0-3.258,0.78-4.299,2.052    c-0.293,0.359-0.553,0.75-0.748,1.183c0-0.004,0.002-0.008,0.004-0.011l-0.006,0.012c-0.002,0.001-0.002,0.004-0.004,0.006    L38.842,38.47C38.785,38.599,38.753,38.733,38.705,38.865z"></path><path d="M43.703,12.33c0.234,0.236,0.387,0.544,0.5,0.881c0.262,0.799,0.219,1.822,0,2.859c-0.111,0.529-0.262,1.054-0.441,1.551    c-0.068,0.191-0.137,0.384-0.215,0.564c-0.113,0.275-0.262,0.595-0.434,0.933c-1.504,2.975-5.373,7.975-14.463,8.285    c-0.005,0-0.012,0.001-0.017,0.001l-3.787,7.886c2.366,0.559,6.577,1.881,10.227,4.73l12.344-26.859    c0.203-0.438,0.32-0.889,0.402-1.344c0.432-2.431-0.783-4.945-3.127-6.022c-0.734-0.336-1.516-0.508-2.314-0.508    c-1.688,0-3.256,0.779-4.297,2.052c-0.297,0.359-0.555,0.751-0.754,1.184c0.002-0.004,0.002-0.006,0.006-0.01l-0.006,0.01    L37.324,8.53l-1.56,3.395h7.532L43.703,12.33z"></path><path d="M29.087,11.924h1.352h2.268l2.087-4.549c0.2-0.438,0.319-0.89,0.399-1.344c0.433-2.429-0.782-4.943-3.126-6.021    c-0.736-0.336-1.514-0.51-2.314-0.51c-1.688,0-3.258,0.781-4.299,2.053c-0.293,0.359-0.552,0.751-0.751,1.185    c0,0.002-0.004,0.004-0.004,0.006l-4.213,9.18H25.1H29.087z"></path><polygon points="34.804,7.361 34.807,7.354 34.804,7.361 34.799,7.374   "></polygon><polygon points="58.777,28.34 58.777,28.34 58.777,28.341   "></polygon><polygon points="48.175,44.752 48.177,44.748 48.175,44.749   "></polygon><polygon points="48.179,44.741 48.177,44.745 48.177,44.746   "></polygon><path d="M68.406,32.776c0-0.624-0.348-1.915-0.361-1.927c-0.785-2.115-2.805-3.628-5.191-3.628c-0.5,0-0.979,0.088-1.441,0.213    c-0.803,0.216-1.527,0.607-2.145,1.131c-0.725,0.617-1.281,1.405-1.615,2.315c-0.004,0.012-0.006,0.026-0.012,0.038l-6.939,14.99    h0.002c-0.205,0.447-0.307,0.913-0.332,1.377c-0.008,0.166,0,0.33,0.014,0.492c0.105,1.305,0.889,2.518,2.16,3.103    c0.604,0.279,1.254,0.362,1.889,0.297c0.828-0.086,1.629-0.432,2.242-0.996c0.295-0.271,0.539-0.6,0.732-0.962l3.604-7.787    l2.521,1.163l0.25-0.543l-3.742,8.143l-0.006,0.012c-0.063,0.135-0.137,0.259-0.211,0.386c-0.154,0.278-0.326,0.548-0.518,0.8    c-0.391,0.519-0.859,0.967-1.379,1.342c-1.006,0.733-2.213,1.184-3.494,1.248c-0.111,0.007-0.219,0.021-0.326,0.021h-0.002    c-0.943,0-1.859-0.202-2.723-0.598c-1.293-0.597-2.285-1.566-2.936-2.72c-0.314-0.558-0.537-1.158-0.68-1.782    c-0.053-0.233-0.096-0.466-0.121-0.705c-0.432,0.22-0.873,0.412-1.338,0.555c-0.775,0.238-1.594,0.368-2.426,0.368l0,0    c-0.965,0-1.609-0.172-2.512-0.497c0.512,1.676,0.832,3.527,0.832,5.63v10.526h-2.777V54.255c0-2.521-0.788-4.656-1.598-6.478    c-3.794-8.545-14.629-10.023-15.183-10.092l-1.914-0.24l6.146-12.802h0.875c0.232,0,0.43-0.029,0.652-0.035    c0.538-0.016,1.074-0.033,1.568-0.084c5.297-0.549,8.203-3.018,9.738-5.135c0.134-0.183,0.25-0.367,0.367-0.548    c0.271-0.426,0.498-0.842,0.689-1.248c0.219-0.463,0.389-0.906,0.518-1.313c0.195-0.628,0.297-1.174,0.328-1.578H18.634    c-2.75,0-5.154,1.458-6.5,3.64c-0.314,0.51-0.572,1.056-0.762,1.635l-7.218,15.48l-0.371,0.796    c-0.356,0.882-0.557,1.844-0.557,2.855c0,1.382,0.373,2.675,1.014,3.794l0.781,1.12l17.738,23.492v31.983h33.33V99.5h2.777    l0.002-23.609l8.822-17.957c0.123-0.223,0.242-0.445,0.336-0.687c0.232-0.595,0.367-1.235,0.379-1.908    C68.408,55.305,68.406,32.776,68.406,32.776z"></path></g></g><g display="none"><g display="inline"><path d="M66.417,72.464c1.535-0.323,2.771-1.456,3.238-2.934h9.643V55.792l-3.801-13.823H36.226h-8.687v-1.675l11.251-7.565    L25.065,23.5l-13.727,9.229l11.251,7.565v1.675H-3.046l-3.8,13.823V69.53h9.641c0.468,1.478,1.705,2.608,3.239,2.934h-19.808    v3.118h100v-3.118H66.417z M68.582,44.366h5.09l3.143,11.426h-8.23V44.366H68.582z M56.148,44.366h10.037v11.426H56.148V44.366z     M64.634,72.464h-7.822c1.09-0.228,2.031-0.856,2.656-1.735h2.508C62.599,71.607,63.542,72.238,64.634,72.464z M43.714,44.366    h10.037v11.426H43.714V44.366z M55.046,72.464h-37.64c1.091-0.228,2.034-0.856,2.658-1.735h16.162h16.163    C53.011,71.607,53.955,72.238,55.046,72.464z M31.135,44.366h10.183v11.426H31.135V44.366z M15.635,32.729l9.43-6.34l9.43,6.34    l-9.43,6.34L15.635,32.729z M18.701,44.366h10.037v11.426H18.701V44.366z M6.267,44.366h10.037v11.426H6.267V44.366z M3.87,55.792    h-8.23l3.141-11.426H3.87V55.792z M10.476,70.729h2.507c0.624,0.879,1.567,1.51,2.658,1.735H7.818    C8.91,72.238,9.852,71.607,10.476,70.729z"></path></g></g><g display="none"><g display="inline"><path d="M86.226,59.834l-6.945-47.421c0,0-1.586-10.913-12.896-10.913H6.067C-5.242,1.501-6.83,12.414-6.83,12.414l-6.944,47.42    l2.777,15.674l-1.785,2.184v11.11h7.54v9.921h18.254v-9.921h46.427v9.921h18.256v-9.921h7.539v-11.11l-1.787-2.184L86.226,59.834z     M15.491,3.882H56.96v11.11H15.491V3.882z M-4.945,20.549l18.65-1.985h19.643v30.159H-8.516L-4.945,20.549z M12.267,69.161    c0,2.409-1.954,4.364-4.365,4.364c-1.852,0-3.433-1.155-4.067-2.782C3.2,72.37,1.619,73.525-0.233,73.525    c-2.411,0-4.365-1.955-4.365-4.364c0-2.412,1.955-4.366,4.365-4.366c1.852,0,3.433,1.153,4.068,2.781    c0.634-1.628,2.215-2.781,4.067-2.781C10.313,64.794,12.267,66.749,12.267,69.161z M78.089,79.874H-5.639v-1.589h83.729V79.874z     M60.183,69.161c0-2.412,1.953-4.366,4.365-4.366c1.852,0,3.434,1.153,4.068,2.781c0.633-1.628,2.215-2.781,4.064-2.781    c2.412,0,4.365,1.954,4.365,4.366c0,2.409-1.953,4.364-4.365,4.364c-1.852,0-3.432-1.155-4.064-2.782    c-0.637,1.627-2.217,2.782-4.068,2.782C62.136,73.525,60.183,71.57,60.183,69.161z M39.103,48.723V18.564h19.643l18.65,1.985    l3.57,28.174H39.103z"></path></g></g><g display="none"><g display="inline"><path d="M54.328-0.5H19.063c-4.328,0-7.837,3.508-7.837,7.836v84.327c0,4.328,3.509,7.837,7.837,7.837h35.265    c4.328,0,7.836-3.509,7.836-7.837V7.336C62.164,3.008,58.656-0.5,54.328-0.5z M32.841,7.815h7.708    c0.575,0,1.043,0.467,1.043,1.044c0,0.576-0.468,1.043-1.043,1.043h-7.708c-0.577,0-1.044-0.467-1.044-1.043    C31.797,8.282,32.264,7.815,32.841,7.815z M28.349,7.415c0.687,0,1.244,0.557,1.244,1.244s-0.557,1.244-1.244,1.244    s-1.244-0.557-1.244-1.244S27.663,7.415,28.349,7.415z M36.695,95.271c-2.705,0-4.898-2.191-4.898-4.896    c0-2.706,2.193-4.898,4.898-4.898c2.705,0,4.897,2.192,4.897,4.898C41.592,93.08,39.4,95.271,36.695,95.271z M58.246,81.989    H15.145V17.011h43.101V81.989z"></path></g></g><g display="none"><g display="inline"><path d="M70.226-0.5h-68c-2.762,0-5,2.239-5,5v90c0,2.762,2.238,5,5,5h68c2.762,0,5-2.238,5-5v-90    C75.226,1.739,72.988-0.5,70.226-0.5z M36.226,98c-1.38,0-2.5-1.119-2.5-2.5s1.119-2.5,2.5-2.5c1.383,0,2.5,1.119,2.5,2.5    S37.609,98,36.226,98z M67.228,90.463c0,0.572-0.465,1.037-1.033,1.037H6.26c-0.569,0-1.033-0.465-1.033-1.037V8.537    C5.227,7.964,5.691,7.5,6.26,7.5h59.935c0.568,0,1.033,0.464,1.033,1.037V90.463z"></path></g></g><g display="none"><g display="inline"><path d="M-9.774,53.072C-9.79,40.2-4.453,30.462,0.706,24.28l0,0c5.187-6.233,10.224-9.236,10.676-9.516l0,0    c3.368-1.993,7.697-0.849,9.667,2.555l0,0c1.966,3.392,0.851,7.747-2.489,9.75l0,0l0.001,0.001c0,0-0.004,0.001-0.015,0.008l0,0    c-0.009,0.004-0.023,0.014-0.042,0.026l0,0c-0.068,0.042-0.194,0.125-0.367,0.244l0,0c-0.351,0.234-0.897,0.625-1.572,1.162l0,0    c-1.349,1.073-3.203,2.74-5.029,4.945l0,0C7.867,37.922,4.37,44.253,4.355,53.07l0,0c0.003,8.89,3.547,16.883,9.314,22.723l0,0    c5.78,5.83,13.687,9.416,22.48,9.418l0,0c8.793-0.002,16.699-3.588,22.478-9.418l0,0c5.77-5.84,9.313-13.833,9.316-22.723l0,0    c-0.017-8.547-3.294-14.742-6.837-19.194l0,0c-3.373-4.221-6.982-6.572-7.342-6.791l0,0c-0.004-0.003-0.009-0.004-0.012-0.006l0,0    c-0.005-0.003-0.008-0.005-0.011-0.006l0,0c-0.003-0.003-0.007-0.003-0.007-0.003l0,0l0,0c-3.336-2.005-4.452-6.36-2.488-9.752    l0,0c1.972-3.404,6.3-4.548,9.667-2.555l0,0c0.454,0.279,5.491,3.282,10.678,9.516l0,0c5.162,6.183,10.496,15.92,10.481,28.792    l0,0C82.07,78.708,61.509,99.491,36.15,99.5l0,0C10.791,99.491-9.768,78.708-9.774,53.072L-9.774,53.072z"></path><path d="M29.085,49.501v-21.43V6.643c0-3.944,3.163-7.143,7.066-7.143l0,0c3.899,0,7.062,3.199,7.062,7.143l0,0v21.428v21.43    h0.002c0,3.94-3.165,7.142-7.064,7.142l0,0C32.248,56.643,29.085,53.441,29.085,49.501L29.085,49.501z"></path></g></g><g display="none"><g display="inline"><g><path d="M58.754,67.279c-6.369,0-12.141,2.572-16.33,6.735c4.469,2.974,6.594,8.539,5.17,16.431h34.328     C81.922,77.65,71.549,67.279,58.754,67.279z"></path><path d="M33.036,75.885c-8.042,0-14.559,6.521-14.559,14.561h29.117C47.594,82.405,41.074,75.885,33.036,75.885z"></path></g><polygon points="68.629,2.434 68.629,-3.305 49.164,-3.305 49.164,2.434 36.606,2.434 36.623,5.116 36.619,5.116 36.619,43.871     42.795,49.928 42.795,8.803 49.444,8.803 49.444,60.647 55.62,60.647 55.62,8.803 62.281,8.803 62.281,60.647 68.457,60.647     68.457,8.803 75.553,8.803 75.553,65.008 81.922,70.559 81.922,2.434   "></polygon><g><path d="M33.032,50.442H3.581L0.316,90.445h11.793c0-11.539,9.388-20.925,20.927-20.925c1.51,0,2.98,0.167,4.4,0.473l0.503-0.497     c1.522-1.512,3.187-2.817,4.95-3.944v-4.903L33.032,50.442z"></path><path d="M-18.052,34.912v55.533h17.96H0.26V34.912l-9.233-22.557L-18.052,34.912z M-4.178,43.9c0,2.547-2.063,4.615-4.619,4.615     c-2.55,0-4.614-2.068-4.614-4.615c0-2.55,2.063-4.614,4.614-4.614C-6.242,39.286-4.178,41.351-4.178,43.9z"></path></g></g></g><g display="none"><g display="inline"><g><path d="M20.298,59.79c-0.356,1.319-0.559,2.823-0.559,4.421c0,2.959,0.689,5.6,1.771,7.338c2.34,1.393,4.307,4.215,5.564,7.881     c2.568-2.232,7.076-2.299,8.313-2.299h2.938h2.939c1.234,0,5.741,0.064,8.312,2.299c1.258-3.666,3.226-6.488,5.564-7.881     c1.08-1.738,1.771-4.379,1.771-7.338c0-1.598-0.201-3.102-0.56-4.421l-0.008-0.027c-0.326-1.338-0.523-2.808-0.523-4.452     c0-1.508,0.155-2.93,0.427-4.187c0.095-0.408,0.149-0.822,0.149-1.262c0-2.861-2.157-5.181-4.818-5.181     c-1.38,0-2.617,0.625-3.51,1.634l-0.124,0.146c-2.258,2.642-5.694,4.328-9.547,4.328h-0.075h-0.076     c-3.851,0-7.288-1.687-9.547-4.328l-0.123-0.146c-0.892-1.009-2.13-1.634-3.511-1.634c-2.66,0-4.816,2.319-4.816,5.181     c0,0.36,0.036,0.703,0.103,1.039c0.306,1.311,0.479,2.812,0.479,4.408c0,1.646-0.197,3.115-0.523,4.453L20.298,59.79     L20.298,59.79z M38.326,81.516H38.18c0,0-1.831,0.004-5.327,0.244c-3.493,0.24-2.991,4.707-2.493,6.682     c0.383,1.512,1.678,3.045,3.059,3.316c2.803,0.371,3.849-0.984,3.849-2.6c0-1.057,0.135-1.686-1.685-2.664     c-0.687-0.357-1.132-0.938-1.089-1.834c1.177,0.195,2.463,0.305,3.809,0.305h0.023h0.024c1.346,0,2.631-0.107,3.809-0.305     c0.044,0.896-0.402,1.477-1.09,1.834c-1.817,0.979-1.682,1.607-1.682,2.664c0,1.615,1.045,2.971,3.847,2.6     c1.381-0.271,2.677-1.807,3.058-3.316c0.499-1.975,1.002-6.439-2.493-6.682c-3.493-0.24-5.326-0.244-5.326-0.244H38.326     L38.326,81.516z M16.105,57.388c-1.035,1.63-1.456,3.95-0.994,6.438c0.604,3.244,2.537,5.877,4.816,6.918L16.105,57.388     L16.105,57.388z M56.777,70.572c2.126-1.139,3.898-3.666,4.468-6.746c0.434-2.318,0.095-4.495-0.793-6.1L56.777,70.572     L56.777,70.572z M-8.633,38.453c0-21.107,21.012-38.217,46.932-38.217S85.23,17.346,85.23,38.453     c0,16.065-12.171,29.813-29.411,35.467l-0.75,2.621c-1.64,6.16-2.461,11.838-3.714,14.512c-1.032,4.363-6.437,8.068-12.889,8.068     l-0.141-0.002l-0.139,0.002c-6.455,0-11.856-3.705-12.891-8.068c-1.252-2.674-2.072-8.352-3.713-14.512l-0.744-2.602     C3.567,68.299-8.633,54.537-8.633,38.453L-8.633,38.453z M25.407,62.953c0.499-0.492,1.988-1.789,4.125-2.088     c2.395-0.332,3.649,1.689,3.873,2.088H25.407L25.407,62.953z M23.452,59.363c1.142-1.392,3.199-2.4,5.605-2.569     c1.941-0.136,3.734,0.303,5.052,1.118l1.409,3.588c-1.684-1.592-4.551-2.71-7.667-2.805     C26.193,58.645,24.687,58.895,23.452,59.363L23.452,59.363z M52.903,59.363c-1.234-0.469-2.739-0.719-4.398-0.668     c-3.115,0.095-5.983,1.213-7.668,2.805l1.409-3.588c1.316-0.815,3.11-1.254,5.053-1.118     C49.704,56.963,51.763,57.972,52.903,59.363L52.903,59.363z M50.948,62.953h-7.997c0.222-0.398,1.479-2.42,3.872-2.088     C48.96,61.164,50.449,62.461,50.948,62.953L50.948,62.953z"></path></g></g></g><g display="none"><g display="inline"><g><path d="M72.82,51.818l-1.879-1.98l-1.881,1.98l-1.879-1.98l-1.879,1.98l-1.879-1.98l-1.879,1.98l-1.881-1.98l-0.98,1.034V29.651     c0-0.36-0.357-0.652-0.797-0.652s-0.797,0.292-0.797,0.652v21.433l-1.184-1.245l-1.879,1.979l-1.879-1.98l-1.881,1.98     l-1.879-1.98l-1.879,1.98l-1.879-1.98l-1.879,1.98l-1.879-1.98l-1.881,1.98V37.761l-15.045-9.178L8.924,37.761v14.056     l-1.88-1.979l-1.879,1.979l-1.879-1.979l-1.879,1.98l-1.88-1.98l-1.879,1.98l-1.879-1.98l-1.879,1.98v22.209h82.688V51.818     l-1.879-1.98L72.82,51.818z"></path><path d="M76.615,29.451c-2.412,1.052-3.807,0.518-5.553-0.158C69.859,28.827,68.5,28.3,66.63,28.3     c-3.152,0-5.5,1.523-6.541,2.345v10.541c0.508-0.461,3.012-2.559,6.541-2.559c1.74,0,2.982,0.48,4.184,0.945     c1.678,0.651,3.273,1.265,5.773,0.274l-5.104-5.104l5.131-5.13V29.451z"></path></g></g></g><g display="none"><g display="inline"><path d="M-8.743,21.079V40.03l60.135,60.136c2.617,2.615,6.859,2.615,9.477,0l28.426-28.43c2.617-2.615,2.617-6.857,0-9.477    L29.16,2.126h-18.95L-8.743,21.079z M22.656,33.183c-2.617,2.617-6.859,2.617-9.477,0c-2.617-2.617-2.617-6.859,0-9.476    c2.616-2.617,6.857-2.617,9.477,0C25.273,26.324,25.273,30.565,22.656,33.183z"></path></g></g><g display="none"><g display="inline"><path d="M88.469,61.021L28.334,0.888H-9.568V38.79l60.135,60.135c2.617,2.617,6.859,2.617,9.477,0l28.426-28.428    C91.086,67.882,91.086,63.639,88.469,61.021z M12.355,31.944c-2.616-2.617-2.616-6.859,0-9.476s6.858-2.617,9.476,0    s2.617,6.859,0,9.476C19.213,34.561,14.971,34.561,12.355,31.944z"></path></g></g><g display="none"><g display="inline"><path d="M85.857,20.961c-0.105-1.276-1.928-2.346-2.781-2.595c-14.996-4.363-38.959,22.41-44.396,28.775l0.016-0.263    c0.012-0.101,0.018-0.203,0.018-0.307c0-1.559-1.264-2.822-2.822-2.822c-1.559,0-2.821,1.263-2.821,2.822    c0,0.104,0.007,0.206,0.018,0.307l0.016,0.263C27.664,40.776,3.7,14.003-11.296,18.366c-0.854,0.249-2.677,1.318-2.78,2.595    c-0.248,3.08,0.861,5.627,2.882,7.614c8.012,7.875,5.438,15.677,7.683,20.727c1.318,2.966,11.071,3.666,8.898,4.448    c-20.597,7.414,4.119,35.261,15.652,28.341c4.379-2.627,11.979-15.557,13.053-17.407l0.52,9.156c0,0.706,0.572,1.278,1.277,1.278    c0.707,0,1.279-0.572,1.279-1.278l0.519-9.156c1.072,1.851,8.674,14.78,13.053,17.407c11.535,6.92,36.25-20.927,15.654-28.341    c-2.176-0.782,7.578-1.482,8.896-4.448c2.244-5.05-0.33-12.853,7.682-20.727C84.994,26.588,86.105,24.04,85.857,20.961z"></path></g></g><g display="none"><g display="inline"><path d="M6.344,20.093c0,0-2.713-4.171-4.833-3.525c-2.333,0.71-1.137,5.351-1.137,5.351c-4.348,0.754-6.248,7.257-14.025,7.775    c-2.854,0.19-0.239,7.377,7.543,8.941c10.818,2.175,18.603,7.619,19.69,11.021c0.651,2.038,6.502,22.364,4.017,26.057    c0,0-4.677,1.088-2.448,5.443c0.586,1.146,10.262,0.785,10.852-1.378c0.233-0.857,2.553-8.252,2.553-8.252    c2.104,2.418,2.031,5.195,0.319,7.213c-1.397,1.646,1.72,4.905,6.135,3.477c5.297-1.714,5.565-16.114,5.565-21.813    c0,0,9.972,3.696,20.335,1.877c0,0,1.292,12.526,0.705,13.335c-0.607,0.837-4.277,2.695-1.861,5.675    c1.661,2.049,6.268,1.563,7.709,0.28c3.077-2.736,6.441-15.158,6.441-15.158s3.024,9.582,2.511,10.094    c-3.21,3.188-1.162,6.313,2.101,6.313c0,0,5.479,0.927,6.712-4.01c0,0-1.389-25.691-0.437-30.988    c2.229-12.41-23.119-18.168-26.654-18.509c-6.048-0.584-20.315-0.616-22.051-1.197c-1.59-0.533-5.487-2.761-8.175-3.272    c-2.176-0.414-5.349,0.502-7.098,0.202c-1.994-0.342-7.55-2.912-7.55-2.912s0.271-3.868-2.288-4.555    C9.26,17.115,6.344,20.093,6.344,20.093z"></path></g></g><g display="none"><g display="inline"><path d="M84.712,69.725c-0.723-1.326-1.719-2.535-2.928-3.5c-0.361-0.302-0.754-0.604-1.176-0.936    c-0.302-0.211-0.544-0.482-0.693-0.814c-0.694-1.269-1.269-2.656-1.631-4.104c-0.422-1.688-0.754-3.438-0.904-5.222l-0.182-1.658    l-0.091-0.936l-0.03-0.424c0-0.029,0-0.029,0-0.061c0-0.693-0.119-1.389-0.361-2.051c-0.361-0.906-1.086-1.57-1.991-1.871    c-0.181-0.061-0.362-0.091-0.543-0.091c-0.151,0-0.271,0-0.394,0.03c-0.09,0.03-0.24,0.061-0.422,0.091l-0.664,0.15l-0.453,0.121    l-0.451,0.121l-0.694,0.121l-0.724,0.211l-0.814,0.182l-0.725,0.211l-0.424,0.151c-0.211,0.121-0.422,0.181-0.633,0.241    c-0.121,0.031-0.211,0.031-0.303,0.031c-0.754-0.151-1.268-0.845-1.207-1.6c0.03-0.513,0.061-1.056,0.061-1.569    c0-0.845-0.061-1.66-0.149-2.475l-0.062-0.513c0.182-0.03,0.303-0.121,0.453-0.241c0.725-0.785,1.146-1.811,1.146-2.896    c0-0.061,0-0.151,0-0.211c-0.029-0.634-0.241-1.268-0.603-1.78c-0.996-1.479-2.385-2.716-3.983-3.53L61.9,34.269l-0.664-0.302    l-0.662-0.241L60,33.484l-0.635-0.241l-0.693-0.271c-0.301-0.09-0.604-0.181-0.936-0.271c-0.936-0.211-1.871-0.332-2.775-0.392    c-0.725-0.03-1.448-0.061-2.172-0.061c0,0-0.031,0-0.062,0c-1.146,0-2.323,0-3.501-0.03c-0.332-0.03-0.633-0.03-0.936-0.03    c-0.936,0-1.871,0.061-2.807,0.121c-0.271,0.03-0.514,0.03-0.755,0.03c-0.905-0.03-1.812-0.121-2.687-0.302    c-0.692-0.121-1.328-0.302-1.99-0.543c-0.424-0.181-0.905-0.332-1.389-0.483c-0.332-0.091-0.633-0.211-0.905-0.362    c-0.331-0.182-0.663-0.333-1.025-0.483c-0.513-0.181-0.996-0.422-1.479-0.725c-0.483-0.271-1.026-0.573-1.569-0.845    s-1.086-0.543-1.629-0.875c-0.604-0.332-1.237-0.604-1.871-0.785c-1.238-0.362-2.505-0.543-3.802-0.573c-0.091,0-0.181,0-0.271,0    c-1.569,0-3.138,0.181-4.677,0.513c-1.509,0.302-2.987,0.694-4.436,1.116l-1.237,0.393l-0.483,0.121l0.181-0.272l0.422-0.513    l0.362-0.422l0.543-0.573l0.513-0.483l0.694-0.604l1.117-0.965l0.965-0.875l0.785-0.815l0.966-1.237    c0.271-0.453,0.482-0.905,0.694-1.418c0.211-0.573,0.332-1.207,0.362-1.841c0-0.06,0-0.09,0-0.151c0-0.573-0.091-1.177-0.211-1.75    c0-0.06-0.03-0.09-0.091-0.09h-0.06c-0.664,1.268-1.449,2.535-2.293,3.742c-0.422,0.634-0.935,1.177-1.539,1.569l-0.452,0.302    c0.301-0.996,0.452-2.021,0.452-3.047l0.03-0.664l-0.06-0.905l-0.061-0.513c-0.061-0.151-0.211-0.272-0.362-0.272    c-0.181,0-0.332,0.121-0.393,0.272l-0.121,0.513l-0.271,0.694l-0.332,0.875l-0.241,0.573l-0.422,0.845    c-0.151,0.362-0.393,0.694-0.694,0.936c-0.482,0.42-1.236,0.058-1.236-0.576c0,0,0-0.061,0-0.09l0.272-2.052    c0.06-0.211,0.09-0.422,0.121-0.634v-0.03c0-0.09-0.061-0.151-0.151-0.181c-0.061-0.03-0.091-0.03-0.151-0.03    c-0.091,0-0.211,0.03-0.302,0.09l-0.996,0.815l-0.754,0.724l-0.694,0.694l-1.509,1.72c-0.332,0.302-0.845,0.121-0.905-0.332    L9.306,20.63l-0.121-0.936l-0.061-0.936l-0.06-0.995L9.003,17.37c-0.03-0.09-0.09-0.151-0.181-0.151    c-0.151,0-0.302,0.091-0.392,0.211c-0.724,0.936-1.358,1.961-1.871,3.078c-0.15,0.332-0.392,0.664-0.633,0.935    c-0.302,0.302-0.815,0.182-0.936-0.211c-0.121-0.392-0.241-0.754-0.362-1.146c-0.15-0.453-0.181-0.785-0.09-1.117    c0.09-0.453,0.121-0.905,0.121-1.358c0-0.271,0-0.543-0.03-0.815l-0.121-0.875c0-0.24-0.211-0.421-0.453-0.421    c-0.151,0-0.271,0.061-0.362,0.181c-0.302,0.362-0.543,0.755-0.754,1.177c-0.423,0.814-0.634,1.72-0.694,2.625l-0.03,0.543    c-0.814-0.905-1.509-1.871-2.021-2.957l-0.121-0.242l-0.543,3.108l-0.211-0.483L-0.863,19l-0.302-0.664l-0.573-1.116l-0.754-1.146    c-0.121-0.121-0.242-0.242-0.393-0.362C-3.036,15.561-3.217,15.5-3.428,15.5c-0.453,0-0.814,0.362-0.814,0.815    c0,0.121,0,0.241,0.03,0.362c0.03,0.664,0.151,1.357,0.393,1.992l0.241,0.693l0.393,0.845c0.03,0.03,0.06,0.061,0.06,0.121    c-0.03,0.211-0.211,0.332-0.392,0.302l-0.122-0.03l-0.272-0.09l-0.241-0.151l-0.453-0.271l-1.569-1.299l-0.211-0.181l-0.302-0.241    l-0.212-0.211l-0.181-0.212l-0.331-0.332c0-0.03-0.03-0.03-0.061-0.06c-0.031-0.03-0.06-0.03-0.121-0.03s-0.121,0.03-0.151,0.121    c-0.03,0.09-0.03,0.151-0.03,0.241c0,0.091,0,0.181,0.03,0.272c0.182,0.724,0.393,1.448,0.695,2.112l0.483,1.237l0.151,0.392    l0.03,0.151c0,0.03,0,0.03,0,0.03c0,0.09-0.061,0.151-0.121,0.211c-0.15,0.06-0.301,0.06-0.392-0.03l-0.543-0.271l-0.604-0.392    l-0.604-0.393l-0.664-0.422l-1.056-0.815l-1.327-1.147l-1.117-1.086c-0.09-0.061-0.15-0.09-0.272-0.121    c-0.03,0-0.06-0.03-0.09-0.03c-0.09,0-0.181,0.061-0.241,0.151c-0.061,0.061-0.09,0.15-0.09,0.241c0,0.06,0.03,0.121,0.03,0.151    c0.694,1.599,1.66,3.048,2.836,4.254c0.573,0.574,1.146,1.117,1.78,1.6c0.725,0.573,1.509,1.117,2.324,1.569    c0.241,0.15,0.482,0.301,0.754,0.453c0.362,0.241,0.724,0.482,1.056,0.754c0.362,0.271,0.664,0.604,0.936,0.936l0.241,0.332    c-1.72,0.09-3.47,0.332-5.19,0.724c-1.418,0.333-2.746,0.875-3.953,1.69c-1.117,0.754-1.871,1.931-2.052,3.259    c-0.03,0.06-0.03,0.15-0.03,0.241c0,0.814,0.513,1.539,1.268,1.781c0.09,0.03,0.181,0.06,0.241,0.06    c0.181,0,0.332-0.06,0.453-0.151l0.121-0.09c0.151,0.604,0.543,1.086,1.056,1.388c0.604,0.332,1.267,0.513,1.931,0.513    c0.091,0,0.181,0,0.271,0c0.724-0.03,1.388-0.121,2.082-0.181c0.634-0.09,1.268-0.181,1.901-0.302    c0.362-0.061,0.725-0.09,1.117-0.061c0.392,0.061,0.754,0.242,1.026,0.543c0.211,0.181,0.362,0.422,0.513,0.694    c0.271,0.453,0.543,0.875,0.845,1.267c0.815,1.117,1.901,2.052,3.108,2.716c0.664,0.362,1.328,0.694,2.022,0.966    c0.694,0.301,1.448,0.542,2.233,0.693c1.388,0.332,2.716,0.543,4.043,0.785c0.785,0.121,1.599,0.332,2.384,0.634    c0.664,0.271,1.297,0.633,1.871,1.086c0.694,0.694,1.116,1.6,1.116,2.595c0,0.03,0,0.061,0,0.061l-0.06,1.448    c0,0.061,0,0.121,0,0.183c0,0.845,0.211,1.658,0.604,2.383c0.09,0.212,0.181,0.393,0.271,0.574c0.03,0.149,0.09,0.271,0.121,0.422    c0.09,0.361,0.121,0.725,0.121,1.117c0,0.211-0.03,0.451-0.06,0.664c-0.061,0.541-0.151,1.115-0.302,1.688    c-0.09,0.513-0.271,0.966-0.543,1.418c-0.392,0.694-0.875,1.388-1.358,2.052l-2.143,2.957l-0.814,1.146l-1.298,1.871l-1.176,1.689    l-1.177,1.721l-1.569,2.504c-0.483,0.846-1.056,1.601-1.69,2.323c-0.694,0.784-1.328,1.599-1.961,2.414    c-0.634,0.814-1.358,1.509-2.172,2.052l-0.996,0.635l-1.116,0.634l-1.207,0.634l-0.271,0.211c-0.061,0-0.091,0.03-0.121,0.061    c-0.09,0.061-0.15,0.15-0.15,0.242c0,0.028,0,0.061,0,0.09c0.06,0.211,0.241,0.393,0.453,0.453    C-3.394,82.641-3.032,82.7-2.64,82.7c0.06,0,0.121,0,0.181,0c1.328-0.06,2.414-0.12,3.53-0.211    c0.814-0.062,1.78-0.302,2.655-0.724c0.302-0.121,0.574-0.303,0.875-0.483c0.332-0.241,0.664-0.543,0.905-0.875    c0.181-0.271,0.393-0.513,0.604-0.755c1.207-1.6,2.354-3.229,3.5-4.889c0.513-0.783,1.207-1.689,1.931-2.535    c1.147-1.326,2.203-2.686,3.259-4.043c1.268-1.66,2.656-3.289,4.074-4.828c0.362-0.393,0.754-0.844,1.177-1.327    c0.242-0.271,0.604-0.634,0.936-0.935c0.513-0.484,0.905-1.088,1.117-1.781c0.211-0.633,0.453-1.207,0.664-1.78    c1.237-2.896,5.462-2.563,6.216,0.513l0.211,0.875l0.151,0.664l0.151,0.876l0.091,0.481c0.302,1.299,0.573,2.596,0.785,3.894    c0.061,0.302,0.15,0.664,0.211,1.026c0.061,0.33,0.151,0.633,0.272,0.936c0.392,0.936,0.845,1.84,1.388,2.686    c0.422,0.664,0.965,1.236,1.569,1.75l2.504,1.932l1.509,1.298l0.693,0.663L37.127,75.7l-0.846,0.393l-0.753,0.331    c-0.544,0.182-1.177,0.362-1.811,0.574c-0.543,0.182-0.905,0.331-1.297,0.513c-0.483,0.212-0.905,0.544-1.237,0.937    c-0.121,0.15-0.211,0.332-0.211,0.513c0.03,0.604,0.272,1.207,0.664,1.63c0.302,0.331,0.724,0.573,1.146,0.663    c0.543,0.151,1.086,0.212,1.63,0.212c0.12,0,0.271,0,0.422,0c1.328-0.091,2.595-0.482,3.772-1.178l2.866-1.75l0.302-0.211    c1.269,1.025,2.565,1.931,3.923,2.746c0.875,0.513,1.78,0.935,2.746,1.268c0.604,0.211,1.268,0.361,1.901,0.393l0.392,0.029    c0.03-0.15,0.03-0.332,0.03-0.481c0-0.241-0.03-0.513-0.06-0.755c-0.092-0.452-0.242-0.875-0.424-1.269    c-0.15-0.301-0.332-0.603-0.543-0.875c-0.332-0.452-0.725-0.905-1.117-1.327l-0.451-0.482l-0.543-0.542l-0.694-0.544l-0.604-0.453    l-0.482-0.393l-0.543-0.302l-0.482-0.241c0.756-0.785,1.569-1.539,2.414-2.232c1.721-1.418,2.987-2.444,4.285-3.471    c0.604-0.513,1.659-1.629,2.504-2.867c0.332-0.451,0.514-1.024,0.544-1.598l0.029-0.424l0.091-0.995    c0.271-2.354,0.967-4.646,2.021-6.76l0.182-0.362c1.116,2.053,3.229,3.381,5.552,3.44c0.062,0,0.151,0,0.212,0    c1.6,0,3.139-0.483,4.405-1.448l1.297-0.936l1.058-0.725l1.115-0.693c0.121-0.092,0.271-0.121,0.424-0.121    c0.604-0.03,1.176,0.181,1.629,0.543c0.182,0.121,0.332,0.271,0.422,0.453c0.15,0.211,0.242,0.422,0.363,0.662    c0.149,0.332,0.24,0.694,0.301,1.026c0.029,0.332,0.062,0.573,0.092,0.845c0.061,0.332,0.09,0.726,0.15,1.086    c0.061,0.604,0.181,1.179,0.361,1.75c0.15,0.574,0.332,1.147,0.482,1.722c0.361,1.418,0.936,2.776,1.689,4.014    c0.604,0.966,1.268,1.9,2.021,2.745c0.271,0.332,0.634,0.604,0.994,0.875l1.361,0.873c0.994,0.664,2.143,0.996,3.318,0.996    c0,0,0,0,0.029,0c0.453,0,0.814-0.303,0.936-0.725c0.092-0.33,0.121-0.692,0.121-1.024C85.226,71.053,85.044,70.359,84.712,69.725    z M48.535,61.91c-0.271,1.447-0.756,2.896-1.42,4.225c-1.297,2.534-3.138,4.707-5.4,6.396l-0.332-0.271    c-1.297-1.146-2.475-2.384-3.53-3.74l-1.116-1.42c-0.453-0.692-0.814-1.447-1.056-2.231c-0.302-0.966-0.483-1.933-0.543-2.927    c-0.09-1.901-0.03-3.834,0.181-5.765c0.664,0,1.328,0,1.991,0.062c0.543,0.06,1.087,0.119,1.629,0.271    c1.238,0.302,2.535,0.482,3.833,0.482c1.237,0,2.475-0.15,3.682-0.452c0.814-0.182,1.6-0.482,2.323-0.905l0.062,0.724    c0.029,0.545,0.029,1.026,0.029,1.539C48.865,59.254,48.746,60.582,48.535,61.91z"></path></g></g><g display="none"><g display="inline"><path d="M73.064,13.742C71.61,10.304,56.607,4.753,51.65,26.895l-26.173,19.63l-39.153,23.443l1.961,0.679l5.202-1.518    l-8.261,4.879l2.709,0.938l28.024-8.327c0,0,12.643,1.727,22.494,1.733c-0.463,0.93-0.928,1.857-1.393,2.786    c-0.469,0.939,3.497,10.33,4.962,14.802c-2.47,0.375-4.941,0.751-7.411,1.126c-0.883,0.135-0.506,1.472,0.369,1.338    c2.602-0.395,5.203-0.789,7.805-1.185c2.601,0.396,5.203,0.79,7.803,1.185c0.875,0.134,1.252-1.203,0.369-1.338    c-2.492-0.379-4.983-0.757-7.476-1.136c-0.112-0.385-0.228-0.77-0.341-1.154c-0.441-1.498-0.885-2.994-1.327-4.492    c-0.827-2.799-1.651-5.597-2.479-8.395c-0.006-0.02-0.012-0.032-0.017-0.049c0.3-0.603,9.757-4.912,9.757-4.912    s-0.004,0-0.005-0.001C83.426,54.56,64.501,26.209,71.744,21.806c3.045-1.851,13.482-4.627,13.482-4.627    C85.226,14.02,73.064,13.742,73.064,13.742z"></path></g></g><g display="none"><g display="inline"><path d="M83.863,15.358c-1.807-0.048-2.666,2.372-3.978,2.364c0.136-1.137,0.938-2.282,1.709-3.489    c0.485-0.639,1.422-0.991,1.222-1.96c-0.104-0.493-0.302-0.813-0.646-1.265c-1.602,0.093-4.387,2.339-5.307,2.607    c-3.216,0.931-8.057,3.184-9.041,3.341c-0.693,0.11-3.08,0.19-2.851-0.294c0.483-1.197,1.5-2.336,2.621-3.636    c1.021-1.178,2.512-2.064,2.909-3.395c0.506-1.667,0.554-4.09-1.024-5.854c-0.767-0.708-0.103,1.377,0.073,2.256    c0.463,3.064-1.693,4.765-3.086,5.655c1.094-3.089,0.689-7.387-2.37-9.777c-1.333-0.718,0.94,2.285,1.354,4.884    c0.163,1.545-0.432,3.739-0.963,5.006c-0.619,1.486-1.143,3.519-2.693,3.797c-0.365-2.095,0.926-4.51,0.207-6.815    c-0.617-1.968-1.522-2.825-3.367-3.65c-0.766-0.197-0.668,0.503,0.166,1.294c2.427,2.301,2.173,5.718,0.689,7.848    c-2.836-1.705-2.732-5.727-4.324-8.943c-0.574-1.168-1.42-2.329-2.14-3.159c-0.913-1.07-1.577-2.965-2.371-2.635    c-0.505,0.19,3.72,5.599,3.085,6.094c-0.588,0.636-1.828-2.25-3.255-2.376c-0.817,1.067,7.677,5.993,3.503,9.641    c-0.188-0.443-0.181-0.883-0.654-1.141c-0.731-0.346-0.252,0.969-0.226,1.4c-3.248,0.776-5.021,1.302-7.262-0.861    c-0.574-0.555-1.067-2.067-2.011-1.408c-0.156,0.122,1.019,2.427,2.357,3.641c1.86,1.218,4.785,0.591,7.118,0.889    c0.401,1.418,0.869,3.018,0.739,4.132c-2.545,2.356-8.993,4.499-11.227,3.271c-3.498-2.382-6.497-9.676-8.473-11.007    c-0.119-0.03-0.284,0.08-0.213,0.238c1.953,4.449,4.018,9.36,6.865,12.073c-4.958,0.836-7.761,1.016-10.52-2.321    c-1.794-2.171-3.173-6.682-4.913-6.889c-0.7-0.084,2.092,3.004,1.906,4.741c-0.099,0.936-4.932-5.054-5.021-4.134    c-0.053,0.54,2.151,3.638,3.698,6.021c0.526,0.82,2.431,2.345,2.151,2.572c-3.551,2.2-6.521-3.094-7.316-3.336    c-1.051-0.257,1.719,5.05,4.393,5.59c1.452,0.291,3.329-0.24,5.203-0.083c2.97,0.245,3.505,1.165,6.627,0.896    c2.549-0.218,5.014-1.128,8.09-1.717c1.145-0.219,2.373-0.197,3.57-0.521c2.194-0.596,3.949-2.271,6.143-2.226    c0.303,0.025,0.443-0.016,0.617,0.095c-0.02,0.735-1.076,0.602-0.818,1.567c0.419,0.566,1.004,0.848,1.62,1.184    c0.591,0.321,1.459,0.356,1.789,0.98c-2.882,0.86-5.862,3.214-9.153,3.569c-1.279,0.14-2.98-0.36-4.729,0.003    c-1.256,0.261-2.739,1.358-3.6,1.785c-0.941,0.469-4.567,1.836-5.45,2.102c-3.276,0.98-7.17,2.017-10.919,2.263    c-5.127,0.337-9.562-1.667-14.461-1.674c-3.147-0.004-5.396,0.509-7.551,1.448c-2.378,1.036-4.127,2.296-5.433,4.538    c-1.495,2.57-3.659,7.201-3.599,9.343c0.044,1.542,0.569,3.839,1.31,4.176c0.732,0.322,0.266-1.99,1.408-0.588    c1.245,1.403,1.544,3.495,1.029,5.018c-0.794,2.342-1.198,4.617-2.505,6.156c-1.82,2.139-4.072,3.34-5.465,5.584    c0.334,3.883-0.422,6.847-0.34,10.323c0.102,4.306-0.096,7.675-1.538,10.476c0.435,0.313,1.339,0.086,1.559,0.642    c0.186,1.94,0.124,3.29,0.342,4.879c0.898,1.654,4.457,2.987,5.722,0.687c-1.158-4.344-2.534-8.588-2.451-13.375    c0.056-3.221,1.107-6.83,2.191-9.198c0.406-0.89,0.79-2.466,1.408-2.925c1.446-1.07,2.227-2.463,3.37-3.672    c1.349-1.428,1.749-2.244,3.338-3.213C2.223,66.4,2.432,68.12,2.292,69.784c-0.141,1.692-0.458,3.177-0.767,4.56    c0.687,1.229,1.614,2.125,2.43,2.973c1.062,1.104,1.51,2.234,2.343,3.728c0.469,0.843,1.129,1.651,1.496,2.479    c0.576,1.306,0.88,2.848,1.427,4.172c0.536,1.303,1.1,2.479,1.952,3.562c0.696,0.265,1.807,0.048,2.311,0.537    c0.477,0.718,0.343,1.69,0.731,2.366c1.127,1.96,4.563,1.962,7.044,0.658c-0.53-1.267-1.829-1.635-2.114-3.18    c-1.479-0.563-2.536-1.607-2.892-3.466c-2.522-2.429-5.017-5.301-6.49-8.918c-0.543-1.341-1.251-2.88-1.237-4.181    c0.011-0.995,0.603-2.356,1.08-3.434c0.855-1.931,2.027-3.656,2.849-5.244c0.688-1.326,1.275-2.776,2.185-3.881    c2.057-1.343,3.771,0.463,5.536,0.709c0.734-0.015,0.166-1.131,0.862-1.175c4.357,1.468,10.083,3.194,16.046,2.37    c1.6-0.223,3.106-0.822,4.828-0.908c0.481,2.059,0.955,4.144,1.28,6.319c0.493,3.278,1.255,6.657,1.249,9.964    c-0.01,3.7-0.309,7.357-0.568,10.945c0.367,0.47,1.183,0.455,1.287,1.207c0.059,0.81,0.178,1.673-0.057,2.256    c0.934,0.859,3.301,0.595,4.939,0.158c-0.364-1.346-0.896-2.438-1.399-3.637c0.287-0.457,0.169-0.918,0.153-1.479    c-0.063-2.667-1.256-5.109-0.783-7.726c0.018-0.09,0.305-0.431,0.354-0.584c0.289-0.881,0.416-1.506,0.59-2.25    c0.25-1.043-0.701-6.703-0.584-7.99c0.644,3.015,3.563,11.133,4.135,14.68c0.314,1.975,0.258,3.752,0.506,5.963    c0.252,0.008,0.264,0.594,0.264,0.86c1.049,0.35,1.012,1.614,2.024,1.7c0.768,0.162,3.239,0.095,4.245-0.584    c-0.604-1.543-1.457-2.781-2.038-4.301c-1.032-2.724-1.289-5.979-1.835-9.074c-0.33-1.905-0.396-4.022-0.969-5.959    c-0.281-0.955-1.125-1.725-1.565-2.785c-1.338-3.204-1.298-7.197-1.623-10.495c2.056-0.917,2.53-3.101,4.271-4.257    c0.56-0.049,1.117-0.094,1.676-0.145c0.562-0.275,0.9-0.828,1.631-0.514c0.281-0.569,0.711-1.282,1.587-0.887    c0.116-0.521,0.479-0.838,0.601-1.357c0.725,0.018,0.68,0.146,1.09-0.281c0.026-0.65,0.391-1.031,0.387-1.723    c0.596,0.165,0.418-0.329,0.699-0.436c0.166-0.261,0.121-0.702,0.287-0.966c-0.095-0.485,0.7-0.207,0.5-0.795    c0.308-0.493,0.229-1.318,0.609-1.75c0.324,0.087,0.051,0.893,0.436,0.906c0.494-1.622,0.967-2.902,2.299-3.796    c0.228-3.732,2.772-5.96,3.115-9.596c1.441-2.084,4.157-2.847,5.314-5.131c0.406-0.807,0.607-1.657,0.857-2.051    c1.67-2.644,3.459-5.921,5.389-8.313c0.691-0.281,1.333-0.925,1.543-1.629C84.154,17.339,84.521,15.807,83.863,15.358z     M54.453,15.28c1.486,0.653,3.196,0.488,4.103,2.271C57.018,19.628,55.164,18.064,54.453,15.28z"></path></g></g><g display="none"><g display="inline"><path d="M59.433,83.573c-0.303-0.303-0.423-0.728,0.061-1.149c0.483-0.426,1.754-0.79,2.299-1.095    c0.543-0.303,0.484-0.183,1.15,0.181c0.666,0.362,2.149,1.051,2.906,0.116c0.785-0.97,3.021-1.82,4.053-1.822    c1.029-0.001,2.602-0.547,3.631-1.156c1.028-0.606,3.269-1.337,4.719-2.247c1.451-0.91,0.664-1.211-0.787-1.087    c-1.453,0.121-6.355,0.917-10.049,1.407c-4.334,0.572-5.092-0.238-7.024-1.686c-0.972-0.726-1.213-0.967-2.483-0.722    c-8.873,1.703-17.42,1.173-28.335-1.471c-2.841,3.396-11.817,5.861-19.181,7.416c-4.076,0.859-4.504,1.844-7.015,4.249    c-1.33,1.272-5.621,6.606-6.797,8.061c-0.527,0.65-1.633,1.396-2.299,1.578c-0.667,0.183-1.876,0.699-2.269,1.155    c-0.381,0.438-3.267,1.729-3.991,2.154c-0.602,0.351-1.095,0.227-1.395-0.181c-0.424-0.573,0.542-2.302,1.086-2.938    c0.448-0.524,1.724-1.184,2.813-1.153c1.089,0.028,1.724-0.336,1.907-1.093c0.177-0.759,0.601-1.184,1.873-1.608    c1.271-0.426,4.745-4.033,5.138-5.396c-1.029,0.699-5.352,4.431-5.743,5.247c-0.392,0.816-1.632,1.456-2.663,1.607    c-0.827,0.123-3.932,1.49-4.749,2.036c-0.495,0.33-1.061,0.147-1.061-0.572c-0.001-0.908,0.34-1.648,1.328-2.726    c0.694-0.76,2.531-1.323,3.055-0.976c0.701,0.465,0.82,0.369,1.241-0.638c0.633-1.515,2.904-2.031,3.296-2.366    c2.983-2.532,5.29-4.761,6.557-7.003c0.327-0.574,0.514-1.151,0.815-1.515c0.302-0.363,0.456-0.272,0.695-0.97    c0.415-1.198,0.773-1.425,2.057-1.427c8.052-0.012,10.847-2.805,11.433-5.769c1.237-6.239,2.587-10.658,5.55-12.603    c0.635-0.415,0.666-0.546-0.001-0.906c-3.883-2.11-4.063-4.537-1.467-9.08c0.667-1.163,1.271-1.032,1.15-0.123    c-0.119,0.909-0.055,3.511,0.371,4.841c0.426,1.331,1.7,3.147,3.697,2.961c1.998-0.185,6.84-0.554,9.384-0.315    c2.543,0.237,12.17,0.525,15.983,0.035c6.758-0.87,10.951-3.104,9.854-8.854c-0.535-2.799-1.831-9.623-1.533-12.589    c0.078-0.788-0.061-0.789-0.456-1.393c-0.608-0.934-1.071-0.721-1.454-1.087c-0.727-0.695-1.91-2.176-2.578-3.326    c-0.613-1.054,0.209-1.67,0.543-1.513c0.516,0.24,0.635,0.18,0.635-0.183c-2.545-2.447-4.038-5.319-5.248-8.074    c-0.852-1.937-3.883-5.08-4.461-5.866c-0.574-0.786-0.848-1.299-0.879-1.966c-0.031-0.665,0.847-0.727,0.877-0.121    c0.031,0.604,0.457,1.179,1.123,1.814c0.668,0.634,3.185,2.841,3.485,3.325c0.229,0.363,0.37,0.32,0.546-0.091    c0.687-1.608,2.711-3.74,4.17-5.124c0.545-0.515,0.604-0.998,0.662-1.454c0.277-2.095-0.064-3.208-1.339-4.932    c-0.274-0.372-0.092-1.059,0.636-0.425c1.414,1.233,2.225,3.01,2.156,5.052c-0.015,0.418,0.131,0.807,0.575,0.573    c0.696-0.364,2.239-1.396,2.844-1.911c0.452-0.385,0.498-0.532,0.515-0.909c0.026-0.758-0.002-1.074-0.246-1.574    c-0.152-0.314,0.016-0.5,0.242-0.288c0.227,0.21,0.651,1.013,0.834,1.272c0.183,0.254,0.305,0.194,0.528-0.049    c1.073-1.147,2.114-2.999,2.25-3.802c0.157-0.927,0.771-0.893,0.683,0.044c-0.491,5.164-8.158,8.852-11.183,12.186    c-1.666,1.84-1.507,4.333-0.838,6.117c0.472,1.255,2.487,3.871,4.276,5.049c0.195,0.128,0.24,0.15,0.271-0.062    c0.106-0.764,0.182-1.486-0.337-2.391c-0.121-0.21-0.219-0.737-0.122-1.119c0.12-0.485,0.12-0.576-0.033-1.18    c-0.904-3.599-0.265-6.005,0.832-9.052c0.696-1.928,0.446-5.935,0.082-7.145c-0.207-0.682,0.301-0.968,0.635-0.122    c0.526,1.336,0.943,3.298,0.979,5.567c0.006,0.406,0.34,0.382,0.878,0.06c1.408-0.848,2.995-2.054,3.627-2.791    c0.937-1.088,0.935-2.602,0.662-3.403c-0.124-0.358-0.14-0.621,0.394-0.228c0.529,0.394,0.789,1.708,0.713,2.178    c-0.062,0.388,0.037,0.438,0.363,0.212c1.92-1.334,2.825-3.515,3.125-5.665c0.143-1.024,0.693-0.759,0.785-0.214    c0.551,3.269-2.854,7.522-5.434,9.091c-3.313,2.012-5.686,4.155-5.924,6.94c-0.168,1.98,0.486,5.318,1.483,6.765    c0.101,0.194,0.259,0.309,0.33,0.055c0.382-0.886,0.56-2.184,0.251-3.1c-0.191-0.571-0.152-0.726,0.395-0.364    c0.545,0.363,0.902,1.506,0.521,4.024c-0.118,0.789,0.062,1.091,0.668,1.695c0.608,0.604,0.97,0.484,1.333,0.24    c0.362-0.243,0.727-0.365,1.15,0.422c0.426,0.787,0.787,1.231,1.637,1.268c1.332,0.059,2.604,0.117,3.088,0.601    c0.819,0.817,0.85,0.727,2,0.843c1.15,0.12,2.361,0.18,3.027,0.18c0.664-0.002,0.79,0.481,1.516,0.542    c0.727,0.06,1.635,0.057,2.241,0.601c0.604,0.543,1.06,1.21,1.062,1.876c0,0.503,0,0.589-0.24,0.682    c-0.174,0.065-0.164,0.229-0.135,0.378c0.121,0.635-0.646,1.262-1.74,1.455c-1.211,0.214-3.723,0.732-4.268,1.066    s-1.875,1.274-2.689,1.52c-0.817,0.241-0.725,1.271-0.331,2.3c2.151,5.595,2.927,10.474,3.172,14.463    c0.187,3.027,0.373,6.659-0.106,9.507c-0.225,1.324-0.604,1.271-0.207,2.725c0.293,1.076,0.037,2.289-0.358,3.088    c-0.151,0.304,0.241,0.454,0.575,0.454c1.515-0.003,8.234,0.651,9.838,0.802c0.813,0.074,1.076,0.233,1.184,0.663    c0.121,0.484,0.609,1.393,0.73,2.178c0.121,0.788-0.422,1.15-0.603,2.364c-0.129,0.872-1.209,2.24-3.565,3.454    c-1.121,0.577-2.299,1.578-3.146,2.125c-0.848,0.546-2.723,1.579-3.206,2.062c-0.483,0.485-1.45,1.274-2.056,1.518    S71.846,83.978,71,84.767c-0.847,0.788-3.683,1.185-5.023,1.098c-1.814-0.119-5.749,0.008-6.781,0.01    c-1.027,0.002-0.906-0.726-0.605-1.331C58.526,84.089,59.162,83.845,59.433,83.573z"></path></g></g><g display="none"><g display="inline"><path d="M85.171,26.287c-4.848-2.65-11.104-3.301-17.102-2.413c-11.48,1.7-20.451,8.93-26.209,20.051    c-2.054-3.019-3.296-6.817-3.328-10.955c-1.552,2.128-2.674,4.684-3.241,7.488c-0.567-2.805-1.689-5.36-3.24-7.488    c-0.033,4.21-1.315,8.074-3.436,11.118C22.862,32.875,13.864,25.582,2.327,23.874c-5.998-0.888-12.254-0.238-17.101,2.413    c11.051,1.697,14.079,8.617,12.227,15.589c8.736-2.634,17.313,6.145,14.513,16.375c2.322-1.114,5.657-1.422,8.708-1.018    c7.296,0.967,12.496,8.484,14.52,17.535c0.001-0.01,0.003-0.022,0.005-0.034c0.001,0.012,0.004,0.024,0.005,0.034    c2.025-9.051,7.224-16.568,14.521-17.535c3.05-0.404,6.385-0.098,8.706,1.018c-2.801-10.229,5.777-19.008,14.514-16.375    C71.092,34.904,74.121,27.984,85.171,26.287z"></path></g></g><g display="none"><g display="inline"><path d="M84.346,58.347c-1.146-3.335-2.188-5.106-3.022-7.923c-0.162-0.548-4.629-12.941-24.168-24.313    c-3.25-1.89-15.752-5.481-18.579-6.536c-0.771-0.387-1.257-0.917-1.463-1.09c-1.924-1.599-4.757-5.828-7.385-7.347    c-3.692-2.132-6.283-2.36-9.021-2.55c-2.328-0.163-6.326-0.265-10.218,1.243c-3.896,1.504-5.012,4.348-5.112,5.287L5.148,16.75    c0.634,0.569,1.056,1.569,1.056,2.491c0,0.894-0.542,1.801-0.542,3.009c0,1.544,0.609,4.152,3.257,6.355    c3.03,2.517,7.017,3.881,10.472,5.703c0.05,0.032,0.125,0.059,0.19,0.115c3.573,3.009,1.073,6.684,1.073,6.684L0.757,32.612    c-6.451-3.264-11.55-1.598-14.862,3.313c-0.243,0.36-0.315,0.469-0.576,0.912c-0.154,0.263-0.108,0.622,0.078,0.772    c0.247,0.2,0.616,0.054,0.756-0.124c2.415-3.048,7.437-3.462,10.152-1.58c0.142,0.099,0.286,0.204,0.426,0.313    c0.47,1.78,0.11,1.329,1.096,5.069c0.594,2.234,2.587,3.903,2.587,3.903s15.531,14.655,17.11,16.104    c2.284,2.096,7.177,3.075,11.283,1.595c1.635-0.589,5.276-2.347,8.801-3.553c0.928-0.318,1.417-0.123,2.005,0.513    c0.891,0.966,1.535,1.606,3.49,3.61c0.459,0.471,0.562,1.173,0,1.784l-9.699,11.007l-0.065,0.063    c-3.07,3.234-2.887,6.422-1.968,9.516c0.368,1.237,1.281,2.755,2.209,3.556c0.234,0.207,0.436,0.154,0.615,0.056    c0.204-0.156,0.162-0.507,0.101-0.688c-1.352-4.014-0.391-7.269,3.02-8.905c1.6,0.914,3.764,2.157,4.45,2.558    c1.784,1.037,4.329,0.541,5.405,0.255c3.258-0.861,17.752-4.652,17.752-4.652c11.188-3.19,13.015-9.994,15.896-13.47    c0.036-0.047,0.072-0.092,0.105-0.138c1.545,0.304,2.349,0.371,3.317-0.426C86.014,62.518,84.971,60.015,84.346,58.347z     M17.435,21.661c1.981,1.156,4.97,0.958,4.97,0.958s-0.739,2.135-3.401,3.396c-1.376,0.656-3.083,1.144-5.781,1.065    c-1.776-0.051-3.356-1.002-4.12-2.156c-0.94-1.408-1.092-3.101-1.092-3.101s0.886-0.104,2.021-0.631    c1.139-0.527,1.487-2.699,1.432-3.74c-0.985-0.102-2.373-0.094-3.805,0.134c0,0,0.152-2.254,2.074-2.747    c1.672-0.429,1.665,0.499,3.577,0.485c0.113-0.001,0.31-0.002,0.437-0.003c0.421-0.004,0.96-0.137,1.267-0.238    c1.285-0.421,1.881-0.72,3.456-0.657c1.921,0.076,4.154,0.434,4.946,3.168c-2.289-0.337-4.426-0.488-7.604-0.199    C15.788,18.706,15.457,20.505,17.435,21.661z"></path><path d="M11.082,21.842c-0.262,0.098-0.436,0.488-0.413,0.755c0.1,1.148,0.452,2.272,1.726,2.387    c1.438,0.138,1.993-1.065,1.917-2.4c-0.007-0.071-0.032-0.368-0.174-0.465C12.766,21.064,11.554,21.663,11.082,21.842z"></path></g></g><g><path d="M71.82,17.043c5.873,6.935,9.698,15.917,11.43,26.993c0,3.133,0,6.265,0,9.398c-1.904,13.555-7.661,23.854-15.592,30.971   c-7.733,6.938-18.294,12.209-32.465,12.174C21.537,96.543,10.67,91.451,2.086,83.336c-8.187-7.74-14.109-18.533-14.737-31.611   C-13.306,38.067-8.56,26.008-0.904,17.124C6.029,9.08,15.921,2.647,28.944,0.776C5.093,3.85-13.336,24.232-13.336,48.92   c0,26.811,21.734,48.545,48.545,48.545S83.753,75.73,83.753,48.92C83.753,36.72,79.251,25.571,71.82,17.043z"></path><path d="M-2.519,24.686c0.953-0.04,1.912,0.011,2.856,0.143c0.446,0.063,0.906,0.127,1.341,0.249   c0.579,0.163,0.476,0.09,0.617,0.558c0.271,0.898,0.044,2.243,0.104,3.194c0.235,3.746,0.827,7.513,1.942,11.093   c0.371,1.192,0.526,2.367,0.816,3.529c-1.384,1.611-2.51,3.762-3.445,5.659c-1.043,2.118-1.9,4.325-2.575,6.587   c-0.345,1.154-0.642,2.324-0.896,3.502c-2.541,0.816-5.726,0.58-8.258-0.045c-0.103,0.32-0.011,0.67,0.146,0.967   c0.708,0.156,1.224-0.113,1.932-0.072c2.151,0.125,4.256-0.303,6.394-0.207c1.972,4.018,4.902,8.584,8.33,11.746   c1.157,1.068,2.609,1.787,3.706,2.926c1.266,1.316,0.896,2.9,1.106,4.568c0.15,1.191,0.293,2.32,0.592,3.467   c0.46,1.76,0.372,3.953,1.486,5.463c-0.438,0.082-1.848,0.238-2.259,0.035c0.947,0.467,1.691,1.271,2.637,1.748   c0.999,0.506,1.949,1.107,2.998,1.529c1.741,0.703,3.522,1.309,5.325,1.836c4.063,1.189,8.846,2.557,13.456,1.922   c4.422-0.607,9.358-2.961,12.175-5.125c1.184-0.91,2.024-2.387,3.203-2.777c1.321-0.438,3.067-0.258,4.272-0.428   c3.558-0.5,7.195-1.393,10.213-3.424c2.696-1.816,4.592-4.463,5.912-7.4c0.831-1.848,1.175-3.846,1.666-5.813   c0.173-0.691,0.356-1.338,0.484-2.029c0.118-0.645,0.179-1.52,0.425-2.119c0.238-0.578,0.776-0.811,1.208-1.242   c0.379-0.381,0.72-0.799,1.1-1.186c0.928-0.943,1.861-1.906,2.537-3.066c0.615-1.059,1.242-2.303,1.651-3.467   c0.212-0.6,0.432-1.238,0.546-1.842c0.094-0.496,0.153-1.008,0.223-1.51c-1.899,4.545-3.911,8.98-7.597,11.74   c-0.2,0.15-3.406-1.684-3.81-1.867c-1.307-0.596-2.627-1.164-3.948-1.729c-0.885-0.379-3.344-1.014-3.565-1.84   c-0.157-0.586,0.135-1.563,0.14-2.186c0.006-0.711-0.036-1.422-0.172-2.121c-0.53-2.723-0.85-5.455-1.522-8.184   c-0.325-1.317-0.703-2.567-1.103-3.91c-0.108-0.367-1.686-4.302-1.49-4.379c0.913-0.364,1.746-2.033,2.294-2.81   c0.726-1.031,1.371-2.035,2.074-3.064c0.705-1.031,1.287-2.182,1.985-3.263c0.635-0.983,1.036-2.169,1.818-3.084   c0.619-0.726,1.313-0.119,2.044,0.011c1.044,0.187,1.981,0.468,2.993,0.875c2.071,0.833,4.076,1.858,5.893,3.163   c1.707,4.131,2.933,8.744,4.271,13.242c-0.364-1.225-0.483-2.502-0.797-3.74c-0.292-1.153-0.513-2.4-0.869-3.529   c-0.665-2.109-0.998-4.296-2.251-6.168c-1.146-1.711-3.381-2.101-5.149-2.953c-1.805-0.87-3.674-1.684-5.671-1.978   c-2.8-3.655-5.944-7.763-9.611-11.106c-0.494-0.45-1.04-0.843-1.563-1.258c-0.321-0.255-0.608-0.548-0.912-0.824   c-0.229-0.209-0.84-0.51-0.969-0.774c-0.123-0.252,0.057-0.559,0.077-0.857c0.021-0.306-0.013-0.614,0.011-0.92   c0.037-0.504,0.092-1.029,0.123-1.553c0.032-0.547,0.05-1.11,0.043-1.67C54.21,6.416,54,5.836,54.14,5.359   c-0.19,0.028-0.394,0.008-0.569-0.057c0.342,0.64,0.018,1.809-0.024,2.505c-0.023,0.406,0.073,3.95-0.412,3.976   c-6.549,0.357-12.305,1.508-16.874,3.844c-4.317-2.872-10.955-4.325-17.3-4.485c-0.289-1.776-0.215-3.915-0.214-5.98   C8.441,8.528,0.403,16.009-4.961,25.026C-4.754,24.678-2.899,24.701-2.519,24.686z M49.64,87.365   c-0.585,0.744-1.355,1.363-2.094,1.949c-2.095,1.658-4.262,3.203-6.834,3.826c-1.349,0.328-2.608,0.822-3.994,0.994   c-0.691,0.086-1.398,0.086-2.114,0.086c-0.646,0.002-1.294-0.15-1.933-0.148c-1.034,0.004-2.083-0.129-3.104-0.277   c-2.081-0.303-4.131-0.813-6.121-1.488c-2.964-1.006-6.909-2.432-8.33-4.059c-2.798-3.203-2.69-8.402-3.418-13.242   c5.047-1.992,10.184-4.213,14.524-6.408c0.205-0.104,0.401-0.539,0.854-0.428c5.826,1.455,12.228,5.469,19.863,5.98   c0.783,2.02,1.077,3.961,1.709,6.195c0.319,1.133,0.83,2.199,1.178,3.322c0.148,0.482,0.096,0.832,0.142,1.279   c0.043,0.42,0.3,0.814,0.283,1.24C50.234,86.621,49.909,87.023,49.64,87.365z M57.833,39.55c1.868,6.392,4.136,12.381,4.272,20.504   c-4.305,5.094-9.093,9.703-14.738,13.455c-7.394-1.148-13.573-3.512-19.649-5.98c-0.432-0.174-0.833-3.508-0.948-4.037   c-0.324-1.479-0.628-2.963-0.937-4.445c-0.582-2.803-0.996-5.65-1.675-8.428c-0.28-1.149-1.109-2.448-0.314-3.539   c0.712-0.976,1.691-1.697,2.599-2.483c0.79-0.685,1.455-1.518,2.18-2.29c1.801-1.918,3.771-3.619,5.792-5.286   c0.759-0.626,1.497-1.28,2.254-1.91c0.306-0.253,1.813-1.822,2.156-1.755C45.852,34.729,52.018,36.964,57.833,39.55z M3.225,26.598   c0.104-1.384,0.23-2.606,1.12-3.718c0.767-0.958,1.605-1.73,2.455-2.603c1.365-1.404,2.675-2.794,4.273-3.935   c1.646-1.175,3.068-2.67,4.828-3.685c2.116-1.22,4.404-1.035,6.776-0.859c0.658,0.049,1.244,0.31,1.861,0.42   c0.654,0.117,1.327,0.19,1.964,0.322c2.356,0.489,4.835,1.104,7.083,2.155c0.603,0.282,1.706,0.619,2.117,1.158   c0.013,0.018,0.025,0.035,0.038,0.053c0.354,0.528,0.318,1.448,0.414,2.04c0.326,2.004,0.688,4.001,0.959,6.014   c0.365,2.71,1.524,6.066,1.068,8.33c-0.295,1.462-2.446,2.671-3.845,3.844c-4.13,3.465-8.085,7.494-11.534,11.106   c-5.48-1.638-11.149-3.089-17.087-4.271c-0.249-0.05-0.796-2.657-0.889-2.983c-0.332-1.173-0.638-2.355-0.887-3.549   c-0.389-1.864-0.576-3.793-0.717-5.693C3.125,29.375,3.124,27.941,3.225,26.598z"></path></g><g display="none"><path display="inline" d="M35.875,0.533c-26.601,0-48.166,21.565-48.166,48.166c0,26.602,21.565,48.167,48.166,48.167   c26.602,0,48.166-21.564,48.166-48.167C84.041,22.098,62.476,0.533,35.875,0.533z M35.875,95.902   c-26.069,0-47.202-21.135-47.202-47.204c0-26.069,21.133-47.202,47.202-47.202s47.202,21.133,47.202,47.202   C83.077,74.768,61.944,95.902,35.875,95.902z"></path><path display="inline" d="M35.875,0.533c-26.601,0-48.166,21.565-48.166,48.166c0,26.602,21.565,48.167,48.166,48.167   c26.602,0,48.166-21.564,48.166-48.167C84.041,22.098,62.476,0.533,35.875,0.533z M35.875,95.902   c-26.069,0-47.202-21.135-47.202-47.204c0-26.069,21.133-47.202,47.202-47.202s47.202,21.133,47.202,47.202   C83.077,74.768,61.944,95.902,35.875,95.902z"></path><path display="inline" fill-rule="evenodd" clip-rule="evenodd" d="M0.139,17.821c0.291,0.225-0.286,0.534-0.451,0.677   C-0.541,18.708,0.015,17.987,0.139,17.821z"></path><path display="inline" fill-rule="evenodd" clip-rule="evenodd" d="M-1.554,19.966C-1.4,20.2-2,20.644-2.118,20.982   C-2.428,20.591-1.654,20.321-1.554,19.966z"></path><path display="inline" fill-rule="evenodd" clip-rule="evenodd" d="M-2.457,21.321c-0.149,0.415-0.517,0.611-0.677,1.016   C-3.229,22.123-2.809,21.461-2.457,21.321z"></path><path display="inline" d="M32.794,69.525c-0.13,2.219-0.684,4.926-2.548,6.365c-2.187,1.689-5.388,0.682-7.277-1.012   c-0.817-0.732-1.682-1.439-2.401-2.25c-1.396-1.57-2.506-3.348-3.806-4.969c-2.903-3.619-5.617-7.348-7.572-11.58   c-0.795-1.721-1.589-3.43-2.353-5.17c-1.491-3.4-2.094-7.082-3.183-10.572c-0.536-1.715-1-3.302-1.807-4.92   c-0.421-0.847-0.985-1.915-1.698-2.56c-0.649-0.588-1.318-0.767-2.145-0.572c-1.559,0.369-2.844,1.179-3.71,2.568   c-0.623,1-1.238,2.111-1.701,3.194c-0.96,2.252-1.545,4.694-2.137,7.062c-0.786,3.146-0.972,6.403-1.178,9.626   c-0.14,2.197,0.598,4.637,1.293,6.723c0.759,2.279,1.667,4.604,3.234,6.404c1.593,1.832,3.683,2.932,5.582,4.346   c1.95,1.453,3.95,2.867,5.892,4.248c1.798,1.279,3.689,2.57,5.358,4.055c1.165,1.035,2.952,2.303,2.513,4.006   c-0.353,1.369-2.854,1.852-4.039,1.943C8.5,86.51,7.694,85.973,7.238,86.59c0.231,0.672,1.52,1.279,2.184,1.217   c2.722-0.26,6.306,0.426,6.08-3.494c-0.101-1.734-1.776-3.27-2.951-4.369c-1.327-1.242-2.808-2.473-4.368-3.467   c-3.754-2.393-7.218-5.131-9.906-8.705c-2.926-3.891-4.532-8.92-5.422-13.65c-0.617-3.275-1.055-7.036-0.318-10.326   c0.344-1.535,0.994-3.083,1.531-4.552c0.385-1.052,1.25-2.387,2.226-2.981c0.597-0.365,1.54-0.48,2.168-0.14   c1.177,0.638,1.489,2.219,1.85,3.387c0.474,1.53,0.999,3.046,1.482,4.577c0.865,2.739,1.367,5.601,2.55,8.233   c1.132,2.521,2.334,5.096,3.735,7.49c2.711,4.631,5.665,8.879,9.308,12.813c2.52,2.721,5.779,5.611,9.411,6.516   c2.359,0.588,4.857-0.197,6.386-2.186c1.509-1.965,2.192-4.477,2.941-6.801c0.516-1.6,0.922-3.199,1.304-4.846   c0.317-1.363,0.755-2.578,1.339-3.848c2.528-5.49,4.941-10.92,9.141-15.417c1.759-1.883,3.57-3.805,5.796-5.142   c1.113-0.668,2.323-1.175,3.603-1.412c1.17-0.217,2.606-0.638,3.785-0.58c2.343,0.116,3.358,3.027,3.764,4.938   c0.467,2.201-0.407,4.564-1.029,6.653c-0.731,2.447-1.924,4.705-2.673,7.148c-0.874,2.852-2.362,5.719-3.733,8.352   c-1.629,3.127-4.531,5.799-6.88,8.373c-2.867,3.146-5.655,6.375-8.13,9.842c-1.283,1.795-3.496,5.096-0.731,6.629   c1.858,1.031,3.891,0.66,5.894,0.85c1.817,0.174,4.336-0.377,6.056-1.049c1.093-0.426,2.161-0.4,3.254-0.711   c1.155-0.33,2.224-0.965,3.228-1.592c3.651-2.285,7.115-5.168,9.933-8.301c2.183-2.422,4-5.852,4.533-8.961   c0.701-4.086,0.557-8.279,1.24-12.402c0.222-1.34,0.458-2.803,0.825-4.093c0.479-1.683,2.222-2.251,3.437-0.884   c0.616,0.694,1.09,1.799,1.419,2.665c0.29,0.759,0.13,1.937,0.815,2.501c0.242-1.422,0.646-2.754,0.744-4.23   c0.109-1.654-0.481-2.615-1.657-3.723c-2.027-1.91-4.04-0.281-5.16,1.691c-1.321,2.322-1.458,4.836-1.971,7.383   c-0.429,2.133-0.614,4.268-1.318,6.328c-0.783,2.289-1.3,4.59-2.381,6.734c-1.093,2.166-2.378,3.781-4.065,5.475   c-3.02,3.035-6.334,5.986-10.358,7.73c-1.717,0.744-3.421,1.289-5.148,1.963c-0.902,0.352-1.71,0.775-2.655,0.982   c-0.974,0.211-2.032,0.229-2.998,0.166c-3.306-0.215-2.026-3.484-0.847-5.207c1.004-1.465,2.131-2.688,3.394-3.869   c1.382-1.295,2.318-2.836,3.538-4.246c2.986-3.453,5.811-7.057,8.268-10.908c1.218-1.91,2.345-3.877,3.351-5.908   c0.938-1.889,2.025-3.658,2.719-5.666c0.396-1.15,0.752-2.335,1.077-3.453c1.111-3.817,1.133-8.18-0.743-11.803   c-0.593-1.145-1.71-1.998-3.049-2.171c-1.529-0.198-3.313,0.289-4.802,0.591c-2.243,0.456-4.395,1.268-6.632,1.751   c-1.582,0.343-3.115,0.809-4.682,1.241c-1.345,0.371-2.713,0.437-4.085,0.623c-3.363,0.456-6.622,0.424-9.974,0.048   c-3.896-0.437-7.305-1.737-10.952-3.097c-2.176-0.811-4.212-2.504-5.733-4.251c-1.432-1.646-2.24-3.5-1.057-5.582   c0.803-1.411,2.384-2.336,3.7-3.148c3.202-1.974,6.859-2.469,10.522-2.666c3.125-0.167,6.549,0.097,9.495,0.104   c2.851-0.104,5.65,0.631,8.433,1.011c0.813,0.11,1.531,0.289,2.315,0.511c1.67,0.476,3.589,0.741,5.326,0.957   c1.739,0.216,3.542,0.416,5.279,0.721c1.624,0.285,3.369,0.332,5.063,0.419c0.832,0.042,1.793,0.086,2.584-0.106   c1-0.242,0.865-0.786,1.037-1.616c0.535-2.586-1.148-5.151-2.744-6.991c-2.084-2.403-4.375-4.615-6.663-6.821   c-2.443-2.354-5.428-4.247-8.379-5.848c-1.536-0.833-3.182-1.24-4.861-1.476c-1.584-0.223-3.212-0.617-4.862-0.514   c-3.346,0.207-5.989,1.774-8.998,3.233c-1.566,0.76-3.092,1.595-4.734,2.167c-0.807,0.28-1.601,0.588-2.392,0.954   c-1.082,0.502-2.066,1.195-3.145,1.696c-1.179,0.547-3.643,1.523-4.931,1.233c-1.723-0.387-1.231-2.075-0.87-3.322   c0.2-0.688,1.163-2.89-0.366-2.647c-1.899,0.301-2.594,2.383-2.895,4.028c-0.198,1.078-0.112,2.906,0.912,3.602   c0.952,0.649,2.602,0.463,3.633,0.196c1.75-0.455,3.43-0.986,5.17-1.526c1.66-0.516,3.262-1.352,4.964-1.884   c3.125-0.978,6.525-1.644,9.721-2.043c3.171-0.396,6.913-0.396,10.036,0.202c1.636,0.313,3.362,0.461,4.959,1.04   c1.614,0.585,2.954,1.471,4.446,2.247c2.896,1.505,5.369,3.918,7.007,6.75c0.448,0.774,1.656,2.835,0.672,3.645   c-0.977,0.803-3.148,0.51-4.366,0.492c-1.556-0.023-3.045-0.543-4.554-0.824c-1.596-0.296-3.165-0.539-4.751-0.937   c-4.398-1.104-8.706-1.651-13.346-1.651c-2.895,0-5.835,0.13-8.688,0.54c-2.36,0.34-4.916,1.122-7.195,1.81   c-3.241,0.978-11.167,3.879-10.154,8.483c0.514,2.335,2.309,5,3.986,6.642c0.675,0.662,1.296,1.419,1.985,2.095   c0.945,0.926,2.038,1.755,2.898,2.771c1.688,1.994,3.837,3.562,5.378,5.689c1.548,2.138,3.012,4.331,4.013,6.796   C31.837,58.551,33.116,64.033,32.794,69.525z"></path><path display="inline" d="M1.17,16.39c0.806-1.634,2.301-3.263,3.891-4.145c-0.283,0.868-0.977,1.757-1.297,2.676   c-0.559,1.605-0.934,3.412-1.758,4.883c-0.782,1.394-2.201,2.405-3.335,3.494c-1.469,1.41-3.237,2.427-4.449,4.137   c-0.64,0.902-1.258,1.657-1.763,2.666c-0.412,0.823-0.684,1.798-1.137,2.572c0.414-2.892,1.676-5.693,3.434-8.016   c1.681-2.221,4.605-3.546,5.801-6.09C0.87,17.894,0.855,17.027,1.17,16.39z"></path><path display="inline" d="M82.411,39.645c-0.619-0.388-1.159-1.097-1.5-1.734c-0.232-0.435-0.352-0.819-0.404-1.306   c-0.1-0.926-0.237-1.857-0.415-2.763c-0.32-1.64-1.406-3.002-2.229-4.395c-0.802-1.356-1.286-2.67-1.477-4.206   c-0.096-0.765-0.182-1.465-0.766-2.05c-0.345-0.345-0.675-0.73-0.89-1.172c-0.09-0.187-0.576-1.005-0.563-1.183   c-0.036,0.477,0.178,1.07,0.31,1.476c0.335,1.034,0.651,2.076,1.11,3.064c0.275,0.593,0.534,1.186,0.758,1.79   c0.277,0.748,0.5,1.511,0.635,2.309c0.44,2.619,0.479,4.891,1.861,7.269c1.246,2.142,2.979,4.001,4.013,6.27   C82.798,41.948,82.616,40.782,82.411,39.645z"></path><path display="inline" d="M-4.203,56.316c0.484,2.059,0.965,4.393,1.758,6.359c0.318,0.791,0.68,1.557,1.034,2.316   c0.75,1.609,1.85,2.932,3.073,4.199c1.34,1.387,2.688,2.699,4.138,3.951c1.031,0.889,2.637,1.924,3.405,3.088   c-0.525-0.197-1.054-0.518-1.538-0.836c-2.768-1.822-5.743-3.963-7.684-6.676c-0.984-1.377-1.883-2.836-2.557-4.365   c-0.337-0.764-0.719-1.492-1.063-2.275C-5.805,57.141-6.8,51.861-6.188,46.46c0.24-2.12,0.615-4.208,1.417-6.204   c0.25-0.625,0.763-1.817,1.577-1.861c1.01-0.056,1.438,1.296,1.655,2.076c1.133,4.082,2.484,8.063,4.317,11.913   c1.195,2.512,2.679,4.91,3.95,7.395c1.193,2.33,2.505,4.633,4.188,6.65c0.724,0.867,1.622,1.484,2.319,2.355   c0.862,1.078,1.669,2.197,2.597,3.221c1.134,1.25,2.133,2.51,3.41,3.646c2.7,2.4,5.995,4.018,9.46,4.941   c-2.706-0.127-5.5-1.742-7.782-3.068c-1.583-0.922-3.053-2.143-4.332-3.436c-3.628-3.67-7.361-7.584-9.93-12.135   c-1.724-3.055-3.308-6.143-4.917-9.262c-1.125-2.18-1.992-4.501-3.399-6.528c-0.651-0.938-1.636-2.115-2.514-0.664   c-0.745,1.232-0.677,2.966-0.677,4.354C-4.849,52.035-4.698,54.209-4.203,56.316z"></path><path display="inline" d="M34.107,77.029c-0.206,0.223-0.418,0.445-0.641,0.67c-0.608,0.613-1.263,1.322-2.04,1.732   c-0.738,0.391-2.117,0.883-2.964,0.955c0.343,0.363,0.98,0.436,1.482,0.408c0.576-0.031,1.175-0.346,1.695-0.582   c0.902-0.41,1.862-0.986,2.613-1.645c3.19-2.795,4.613-7.691,6.013-11.525c1.135-3.105,2.297-6.291,3.824-9.283   c1.779-3.484,4.631-6.207,7.939-8.167c1.031-0.61,2.156-1.205,3.234-1.76c0.933-0.48,2.002-0.84,3.054-0.42   c1.932,0.772,0.733,4.889,0.496,6.256c-0.438,2.535-1.415,4.77-2.412,7.139c-0.913,2.172-1.956,4.289-3.128,6.314   c-0.936,1.617-2.007,3.275-2.784,4.875c-0.324,0.666-0.828,1.352-1.271,1.947c-1.105,1.484-2.42,2.822-3.565,4.277   c-1.096,1.391-2.161,2.771-3.162,4.229c-0.648,0.943-1.933,2.354-2.114,3.471c1.008-0.979,1.628-2.391,2.538-3.463   c1.168-1.375,2.376-2.727,3.45-4.166c0.916-1.229,1.992-2.33,2.976-3.496c2.817-3.342,4.795-7.125,6.79-10.988   c2.08-4.027,3.972-8.184,5.104-12.588c0.651-2.532,1.801-7.861-2.32-7.759c-2.435,0.06-4.254,1.559-6.263,2.714   c-0.848,0.487-1.561,0.875-2.278,1.534c-1.345,1.234-2.702,2.354-3.901,3.72c-2.256,2.574-3.943,5.789-5.096,8.994   c-1.11,3.088-1.929,6.023-3.101,8.998c-0.58,1.477-1.071,3.049-1.861,4.453C35.734,75.082,34.994,76.064,34.107,77.029z"></path><path display="inline" d="M64.271,58.695c-0.339,0.734-0.666,1.49-0.969,2.24c-0.441,1.094-1.16,1.992-1.552,3.109   c-0.466,1.33-1.21,2.584-1.85,3.84c-1.062,2.084-2.388,4-3.635,5.973c-1.542,2.438-3.651,4.564-5.401,6.84   c-0.93,1.205-1.893,2.457-2.639,3.742c-0.497,0.859-1.316,1.969,0.339,2.26c0.787,0.139,1.501-0.104,2.225-0.219   c0.754-0.119,1.438-0.15,2.167-0.404c2.25-0.783,4.339-1.377,6.341-2.771c2.886-2.012,5.863-4.166,8.066-6.951   c3.129-3.957,4.891-8.779,5.86-13.688c0.848-4.293,0.702-9.389,4.014-12.712c2.416-2.425,4.153,0.819,5.998,2.078   c0.304-0.458-1.079-1.899-1.448-2.308c-0.757-0.837-1.874-2.042-3.103-2.04c-1.479,0.002-2.692,1.568-3.412,2.687   c-0.909,1.413-1.317,3.008-1.652,4.653c-0.671,3.299-0.992,6.871-2.024,10.158c-0.465,1.479-0.836,3.076-1.391,4.523   c-0.3,0.781-0.72,1.678-1.109,2.406c-0.361,0.674-0.832,1.309-1.21,1.975c-0.438,0.775-1.182,1.309-1.621,2.08   c-0.382,0.668-0.608,1.17-1.205,1.734c-2.473,2.348-5.251,4.475-8.477,5.666c-0.829,0.305-4.075,1.676-4.723,0.48   c-0.509-0.938,1.045-2.797,1.538-3.482c2.531-3.523,4.864-7.469,6.798-11.35c1.32-2.648,2.751-5.264,4.014-7.975   c0.847-1.82,1.484-3.725,2.061-5.645c0.439-1.465,1.392-3.404,1.132-4.937c-1.05,2.259-1.523,4.739-2.627,6.978   C64.606,57.982,64.437,58.336,64.271,58.695z"></path><path display="inline" d="M38.713,23.467c-1.52,0.056-3.037,0.147-4.551,0.275c-1.183,0.1-2.343,0.476-3.536,0.486   c-0.615,0.005-1.172,0-1.776,0.13c-0.998,0.215-1.983,0.442-2.998,0.623c-1.984,0.354-3.927,0.892-5.499,2.206   c-1.705,1.426-0.805,3.164,0.469,4.591c1.3,1.459,3.34,2.202,5.043,3.125c2.063,1.118,4.136,1.785,6.438,2.172   c4.053,0.68,8.469,1.577,12.564,0.677c2.072-0.455,4.105-0.784,6.237-0.908c1.811-0.104,3.557-0.727,5.349-1.039   c1.104-0.192,2.302-0.099,3.437-0.099c0.85,0,1.783,0.347,2.608,0.186c-0.802-0.854-2.677-0.706-3.741-0.777   c-1.895-0.128-3.813-0.172-5.688,0.177c-2.688,0.501-5.191,1.233-7.865,1.761c-2.034,0.402-4.188,0.349-6.279,0.199   c-2.149-0.153-3.996-0.692-6.027-1.238c-1.661-0.447-2.98-0.808-4.551-1.732c-0.825-0.485-1.638-0.824-2.384-1.445   c-0.667-0.556-1.459-1.153-2.042-1.808c-2.656-2.98,2.553-4.361,4.531-5.018c0.805-0.268,1.549-0.559,2.378-0.624   c1.807-0.14,3.569-0.339,5.372-0.539c3.678-0.407,7.675-0.658,11.358-0.185c1.479,0.19,3.001,0.413,4.495,0.5   c1.46,0.085,2.898-0.058,4.311,0.184c-0.502-0.333-1.615-0.318-2.268-0.398c-0.768-0.095-1.506-0.168-2.275-0.303   c-1.569-0.273-3.056-0.745-4.653-0.941c-1.602-0.197-3.201-0.305-4.862-0.305C41.107,23.401,39.91,23.423,38.713,23.467z"></path><path display="inline" d="M57.846,15.412c-1.049-1.631-2.501-2.434-4.067-3.407c-1.665-1.036-3.326-2.19-5.265-2.646   C46,8.769,43.436,8.697,40.893,8.096c1.327-0.001,2.752-0.078,4.024,0.081c1.337,0.167,2.715,0.457,4.032,0.62   c2.529,0.313,4.958,1.383,7.311,2.311c0.948,0.374,1.439,0.915,2.221,1.524c0.997,0.778,2.089,1.361,2.873,2.388   c0.54,0.707,1.646,2.115,1.534,3.005c-0.142,1.129-1.461,1.185-2.378,1.241c-3.41,0.207-6.932-0.292-10.261-0.724   c-1.708-0.222-3.526-0.092-5.252-0.31c-3.308-0.418-6.813-0.72-10.135-0.52c-2.382,0.143-4.725,0.636-7.044,1.174   c-1.101,0.255-2.198,0.527-3.3,0.772c-0.862,0.192-1.62,0.604-2.47,0.825c-1.114,0.289-2.241,0.442-3.336,0.813   c4.269-1.711,8.275-2.878,12.738-3.583c3.357-0.53,6.989-0.99,10.445-0.931c2.131,0.037,4.267,0.207,6.412,0.207   c1.02,0,2.001,0.025,2.999,0.104C52.455,17.182,59.794,18.439,57.846,15.412z"></path><path display="inline" d="M26.999,64.078c-0.163,1.414-0.07,4.098-1.463,4.904c-1.423,0.822-2.812-0.244-3.852-1.16   c-2.301-2.027-4.26-4.482-5.981-6.957c-0.959-1.377-2.201-2.623-3.155-4.066c-0.933-1.411-1.653-2.902-2.401-4.447   c-0.931-1.918-1.833-3.803-2.689-5.687c-0.418-0.921-0.866-1.904-1.345-2.782c-0.349-0.64-0.744-2.134-1.455-2.345   c-0.097-0.029,0.402,1.368,0.453,1.489c0.312,0.745,0.63,1.473,0.98,2.201c0.761,1.583,1.39,3.247,2.092,4.854   c0.822,1.887,1.647,3.703,2.666,5.481c0.44,0.769,0.801,1.616,1.238,2.376c0.937,1.633,2.073,3.121,3.171,4.645   c0.57,0.791,1.101,1.613,1.689,2.396c0.926,1.229,2.059,2.338,3.019,3.51c0.889,1.086,2.118,2.436,3.315,3.205   c1.143,0.736,3.014,1.818,4.214,0.699c1.157-1.078,1.15-3.107,1.312-4.559c0.221-1.98,0.389-3.986,0.053-5.963   c-0.286-1.68-0.707-3.283-1.153-4.965c-0.964-3.641-2.562-6.674-4.855-9.636c-0.946-1.222-2.09-2.283-3.135-3.422   c-1.566-1.708-3.233-3.038-4.6-4.923c-0.885-1.221-1.567-2.434-2.303-3.739c-0.888-1.577-1.499-2.442-1.657-4.254   c-0.056-0.652-0.182-1.272-0.284-1.912c-1.111,2.876,0.424,6.103,2.1,8.42c1.891,2.615,4.129,4.951,6.041,7.575   c2.026,2.781,4.438,5.313,5.845,8.477c0.754,1.695,1.269,3.454,1.811,5.171c0.259,0.822,0.381,1.709,0.437,2.586   C27.166,62.174,27.109,63.127,26.999,64.078z"></path><path display="inline" d="M13.973,35.811c0.608,1.738,2,3.491,3.13,4.967c0.503,0.657,1.208,1.184,1.756,1.748   c1.539,1.581,3.003,3.154,4.502,4.765c1.164,1.25,2.144,2.482,3.048,3.925c0.754,1.205,1.125,2.779,1.551,4.119   c1.333,4.201,2.029,8.775,1.548,13.18c-0.203,1.852-1.196,5.164-3.562,5.182c-2.313,0.016-4.639-2.391-6.079-3.939   c-2.54-2.732-4.915-5.775-6.826-9.02c-1.961-3.328-3.567-6.852-5.592-10.1c0.498,2.133,1.437,4.354,2.461,6.295   c0.977,1.85,2.312,3.576,3.532,5.262c2.61,3.605,4.812,7.342,8.157,10.355c2.098,1.891,5.086,4.91,7.992,2.662   c1.412-1.094,1.83-2.875,2.06-4.549c0.235-1.713,0.427-3.508,0.316-5.273c-0.106-1.684-0.608-3.336-0.833-4.965   c-0.949-6.859-5.996-12.875-10.937-17.399c-2.274-2.083-4.135-4.489-6.001-6.906c-0.562-0.729-1.329-1.806-1.628-2.632   c0.559,1.769,1.833,3.296,2.837,4.818c0.47,0.714,0.847,1.472,1.372,2.148c1.432,1.84,3.368,3.218,4.974,4.874   c0.066,0.067,0.13,0.138,0.193,0.209"></path><path display="inline" d="M78.118,64.58c0.015-0.18,0.032-0.357,0.054-0.537c0.17-1.41,0.101-5.793,2.304-5.875   c0.535-0.021,1.261,0.816,1.447,1.289c-0.108-1.543-0.615-3.313-1.542-4.566c-0.436-0.59-1.014-1.135-1.784-1.176   c-1.191-0.063-1.455,0.73-1.644,1.745c-0.544,2.94-0.761,5.925-1.059,8.896c-0.259,2.576-0.521,5.324-1.032,7.857   c-0.163,0.805-0.4,1.578-0.701,2.385c-0.429,1.15-1.688,2.965-1.43,4.221c0.728-0.162,1.685-2.025,2.053-2.672   c0.53-0.932,1.047-1.955,1.678-2.879c0.867-1.268,1.204-2.729,1.293-4.244C77.842,67.516,77.994,66.082,78.118,64.58z"></path><path display="inline" d="M5.006,80.486c0.007,0.008,0.014,0.016,0.021,0.023c0.493,0.545,1.251,1.342,0.81,2.133   c-0.441,0.789-1.453,0.354-2.019,0.84c-1.135,0.973,2.042,1.676,2.813,1.533c1.386-0.258,3.335-0.455,2.508-2.383   c-1.132-2.637-3.772-4.01-6.026-5.533c-1.178-0.797-2.46-1.451-3.64-2.273c-1.329-0.924-2.644-1.92-3.901-2.945   c-1.082-0.883-1.807-2.092-2.671-3.072c0.208,0.234,0.216,1.334,0.405,1.725c0.433,0.889,1.32,1.367,2.023,2.031   c0.914,0.863,1.773,1.783,2.727,2.604C0.196,77.014,3.106,78.396,5.006,80.486z"></path><path display="inline" d="M32.381,39.534c-0.267,0.015-0.496-0.018-0.724-0.104"></path><path display="inline" d="M36.902,39.711c2.682-0.039,5.536-0.083,8.176-0.616c1.133-0.228,2.233-0.44,3.355-0.882   c0.529-0.208,1.059-0.437,1.632-0.543c0.485-0.09,1.2,0.017,1.618-0.209c-2.188,0.397-4.453,0.793-6.686,1.035   c-3.199,0.346-6.713,0.757-9.926,0.109c-1.645-0.332-3.289-0.555-4.966-0.85c-2.524-0.445-5.869-0.677-7.823-2.681   C26.188,38.698,31.745,39.785,36.902,39.711z"></path></g></svg></g></g><path fill="#1a6e35" fill-rule="nonzero" d="M4.70 17.21L4.70 17.21Q3.43 17.21 2.35 16.55Q1.27 15.89 0.64 14.78Q0 13.68 0 12.36L0 12.36L0.05 0.36Q0.05 0.26 0.14 0.26L0.14 0.26L2.83 0.26Q2.93 0.26 2.93 0.36L2.93 0.36L2.93 12.36Q2.93 13.18 3.44 13.74Q3.96 14.30 4.70 14.30L4.70 14.30Q5.47 14.30 5.99 13.74Q6.50 13.18 6.50 12.36L6.50 12.36L6.50 0.36Q6.50 0.26 6.60 0.26L6.60 0.26L9.29 0.26Q9.38 0.26 9.38 0.36L9.38 0.36L9.43 12.36Q9.43 13.70 8.80 14.81Q8.16 15.91 7.09 16.56Q6.02 17.21 4.70 17.21ZM13.94 16.97L11.54 16.97Q11.35 16.97 11.35 16.80L11.35 16.80L11.33 0.46Q11.33 0.26 11.52 0.26L11.52 0.26L13.68 0.26L17.74 9.72L17.62 0.46Q17.62 0.26 17.83 0.26L17.83 0.26L20.21 0.26Q20.35 0.26 20.35 0.46L20.35 0.46L20.38 16.82Q20.38 16.97 20.26 16.97L20.26 16.97L18.14 16.97L13.99 8.14L14.16 16.78Q14.16 16.97 13.94 16.97L13.94 16.97ZM25.30 16.97L22.58 16.97Q22.46 16.97 22.46 16.85L22.46 16.85L22.49 0.36Q22.49 0.26 22.58 0.26L22.58 0.26L25.27 0.26Q25.37 0.26 25.37 0.36L25.37 0.36L25.39 16.85Q25.39 16.97 25.30 16.97L25.30 16.97ZM31.94 17.21L31.94 17.21Q30.65 17.21 29.58 16.55Q28.51 15.89 27.86 14.80Q27.22 13.70 27.22 12.38L27.22 12.38L27.24 4.78Q27.24 3.46 27.88 2.38Q28.51 1.30 29.59 0.65Q30.67 0 31.94 0L31.94 0Q33.24 0 34.30 0.65Q35.35 1.30 35.99 2.38Q36.62 3.46 36.62 4.78L36.62 4.78L36.65 12.38Q36.65 13.70 36.01 14.80Q35.38 15.89 34.31 16.55Q33.24 17.21 31.94 17.21ZM31.94 14.30L31.94 14.30Q32.66 14.30 33.20 13.72Q33.74 13.13 33.74 12.38L33.74 12.38L33.72 4.78Q33.72 3.98 33.22 3.43Q32.71 2.88 31.94 2.88L31.94 2.88Q31.20 2.88 30.67 3.42Q30.14 3.96 30.14 4.78L30.14 4.78L30.14 12.38Q30.14 13.18 30.67 13.74Q31.20 14.30 31.94 14.30ZM41.09 16.97L38.69 16.97Q38.50 16.97 38.50 16.80L38.50 16.80L38.47 0.46Q38.47 0.26 38.66 0.26L38.66 0.26L40.82 0.26L44.88 9.72L44.76 0.46Q44.76 0.26 44.98 0.26L44.98 0.26L47.35 0.26Q47.50 0.26 47.50 0.46L47.50 0.46L47.52 16.82Q47.52 16.97 47.40 16.97L47.40 16.97L45.29 16.97L41.14 8.14L41.30 16.78Q41.30 16.97 41.09 16.97L41.09 16.97ZM57.10 17.21L57.10 17.21Q55.75 17.21 54.68 16.57Q53.62 15.94 53.00 14.82Q52.39 13.70 52.39 12.31L52.39 12.31L52.39 11.21Q52.39 11.11 52.49 11.11L52.49 11.11L55.20 11.11Q55.30 11.11 55.30 11.23L55.30 11.23L55.30 12.31Q55.30 13.20 55.80 13.75Q56.30 14.30 57.10 14.30L57.10 14.30Q57.82 14.30 58.34 13.70Q58.87 13.10 58.87 12.31L58.87 12.31L58.87 0.38Q58.87 0.29 58.97 0.29L58.97 0.29L61.66 0.29Q61.75 0.29 61.75 0.41L61.75 0.41L61.78 12.31Q61.78 13.63 61.14 14.75Q60.50 15.86 59.45 16.54Q58.39 17.21 57.10 17.21ZM62.30 16.85L62.30 16.85L65.28 0.36Q65.30 0.26 65.40 0.26L65.40 0.26L68.88 0.26Q68.98 0.26 69 0.36L69 0.36L71.86 16.85Q71.88 16.97 71.76 16.97L71.76 16.97L69.10 16.97Q69 16.97 68.98 16.85L68.98 16.85L68.71 15.10L65.45 15.10L65.18 16.85Q65.16 16.97 65.06 16.97L65.06 16.97L62.40 16.97Q62.30 16.97 62.30 16.85ZM67.01 5.78L65.93 12.53L68.23 12.53L67.25 5.78L67.10 4.90L67.01 5.78ZM77.26 17.21L77.26 17.21Q75.96 17.21 74.90 16.56Q73.85 15.91 73.21 14.82Q72.58 13.73 72.58 12.38L72.58 12.38L72.58 4.78Q72.58 3.48 73.21 2.39Q73.85 1.30 74.92 0.65Q75.98 0 77.26 0L77.26 0Q78.58 0 79.64 0.64Q80.71 1.27 81.34 2.35Q81.96 3.43 81.96 4.78L81.96 4.78L81.96 5.88Q81.96 5.98 81.84 5.98L81.84 5.98L79.15 5.98Q79.06 5.98 79.06 5.88L79.06 5.88L79.06 4.97Q79.06 4.06 78.54 3.46Q78.02 2.86 77.26 2.86L77.26 2.86Q76.56 2.86 76.02 3.43Q75.48 4.01 75.48 4.78L75.48 4.78L75.48 12.38Q75.48 13.18 76.01 13.74Q76.54 14.30 77.26 14.30L77.26 14.30Q78.02 14.30 78.54 13.75Q79.06 13.20 79.06 12.38L79.06 12.38L79.06 11.21L77.38 11.21Q77.26 11.21 77.26 11.09L77.26 11.09L77.26 8.40Q77.26 8.28 77.38 8.28L77.38 8.28L81.86 8.28Q81.96 8.28 81.96 8.40L81.96 8.40L81.96 12.38Q81.96 13.73 81.32 14.82Q80.69 15.91 79.63 16.56Q78.58 17.21 77.26 17.21ZM88.22 17.21L88.22 17.21Q86.95 17.21 85.87 16.55Q84.79 15.89 84.16 14.78Q83.52 13.68 83.52 12.36L83.52 12.36L83.57 0.36Q83.57 0.26 83.66 0.26L83.66 0.26L86.35 0.26Q86.45 0.26 86.45 0.36L86.45 0.36L86.45 12.36Q86.45 13.18 86.96 13.74Q87.48 14.30 88.22 14.30L88.22 14.30Q88.99 14.30 89.51 13.74Q90.02 13.18 90.02 12.36L90.02 12.36L90.02 0.36Q90.02 0.26 90.12 0.26L90.12 0.26L92.81 0.26Q92.90 0.26 92.90 0.36L92.90 0.36L92.95 12.36Q92.95 13.70 92.32 14.81Q91.68 15.91 90.61 16.56Q89.54 17.21 88.22 17.21ZM102.70 16.97L94.94 16.97Q94.85 16.97 94.85 16.85L94.85 16.85L94.87 0.36Q94.87 0.26 94.97 0.26L94.97 0.26L102.67 0.26Q102.77 0.26 102.77 0.38L102.77 0.38L102.77 3.07Q102.77 3.17 102.67 3.17L102.67 3.17L97.75 3.17L97.75 6.91L102.67 6.91Q102.77 6.91 102.77 7.01L102.77 7.01L102.79 9.72Q102.79 9.82 102.70 9.82L102.70 9.82L97.75 9.82L97.75 14.02L102.70 14.02Q102.79 14.02 102.79 14.14L102.79 14.14L102.79 16.87Q102.79 16.97 102.70 16.97L102.70 16.97ZM107.74 16.97L105.02 16.97Q104.93 16.97 104.93 16.85L104.93 16.85L104.98 0.36Q104.98 0.26 105.07 0.26L105.07 0.26L109.92 0.26Q111.22 0.26 112.31 0.90Q113.40 1.54 114.05 2.60Q114.70 3.67 114.70 5.02L114.70 5.02Q114.70 5.90 114.43 6.61Q114.17 7.32 113.81 7.81Q113.45 8.30 113.16 8.54L113.16 8.54Q114.46 9.98 114.46 11.93L114.46 11.93L114.48 16.85Q114.48 16.97 114.36 16.97L114.36 16.97L111.65 16.97Q111.55 16.97 111.55 16.90L111.55 16.90L111.55 11.93Q111.55 11.06 110.94 10.43Q110.33 9.79 109.44 9.79L109.44 9.79L107.86 9.79L107.83 16.85Q107.83 16.97 107.74 16.97L107.74 16.97ZM107.86 3.14L107.86 6.91L109.92 6.91Q110.66 6.91 111.24 6.36Q111.82 5.81 111.82 5.02L111.82 5.02Q111.82 4.25 111.25 3.70Q110.69 3.14 109.92 3.14L109.92 3.14L107.86 3.14ZM115.68 16.85L115.68 16.85L118.66 0.36Q118.68 0.26 118.78 0.26L118.78 0.26L122.26 0.26Q122.35 0.26 122.38 0.36L122.38 0.36L125.23 16.85Q125.26 16.97 125.14 16.97L125.14 16.97L122.47 16.97Q122.38 16.97 122.35 16.85L122.35 16.85L122.09 15.10L118.82 15.10L118.56 16.85Q118.54 16.97 118.44 16.97L118.44 16.97L115.78 16.97Q115.68 16.97 115.68 16.85ZM120.38 5.78L119.30 12.53L121.61 12.53L120.62 5.78L120.48 4.90L120.38 5.78Z" transform="translate(0, 9.396)"></path></svg>